<svg width="594" height="458" viewBox="0 0 594 458" fill="none" xmlns="http://www.w3.org/2000/svg">
<g clip-path="url(#clip0_156_797)">
<path opacity="0.1" d="M38.8772 179.512H90.5033V252.936H42.652C42.5299 253.695 42.4078 254.449 42.2704 255.208H90.5033V314.412C90.4219 314.412 90.3405 314.348 90.2642 314.316C88.9075 313.753 87.5509 313.157 86.1943 312.527C85.9043 312.389 85.6194 312.246 85.3244 312.113C83.9677 311.444 82.6111 310.737 81.2545 309.99C80.7814 309.73 80.3083 309.459 79.8453 309.183C72.3139 304.799 65.4688 299.239 59.5469 292.697C59.3689 292.522 59.2061 292.331 59.0382 292.166C58.2141 291.232 57.4052 290.287 56.6217 289.321C56.3267 288.966 56.0418 288.605 55.7518 288.26C54.8259 287.081 53.9305 285.861 53.0657 284.634C52.9334 284.449 52.8113 284.268 52.6842 284.104C49.1413 278.989 46.2033 273.446 43.934 267.596C43.8627 267.421 43.7966 267.23 43.7305 267.065C43.0284 265.208 42.3925 263.323 41.8431 261.402C41.6091 260.6 41.3801 259.81 41.1868 258.976C41.1156 258.737 41.0596 258.493 40.9986 258.254C38.1395 246.497 37.8088 234.279 37.8088 222.118C37.8088 220.703 37.8088 219.287 37.8088 217.872C37.8495 212.907 37.9055 207.948 37.9767 202.994C38.0039 201.72 38.0293 200.441 38.053 199.156C38.1243 195.905 38.226 192.646 38.3583 189.379C38.3888 188.477 38.4295 187.569 38.4753 186.672C38.4956 186.152 38.5211 185.632 38.5516 185.112C38.6432 183.233 38.7517 181.366 38.8772 179.512Z" fill="#04AD48"/>
<path opacity="0.1" d="M90.5035 97.7603H62.1824C66.7882 90.247 71.8183 83.0261 77.2459 76.136C81.4582 70.7432 85.8944 65.4885 90.5035 60.4247V97.7603Z" fill="#04AD48"/>
<path opacity="0.1" d="M90.5033 100.021V177.24H39.04C39.04 177.017 39.0706 176.789 39.0909 176.566C39.1367 175.956 39.1825 175.351 39.2334 174.74C39.2842 174.029 39.3504 173.318 39.4165 172.617C39.4826 171.917 39.5488 171.067 39.6302 170.298C39.7116 169.528 39.7777 168.748 39.8591 167.978C39.9405 167.208 40.0219 166.439 40.1135 165.674C40.205 164.91 40.2864 164.135 40.3882 163.371C40.4645 162.739 40.5408 162.102 40.6273 161.465C40.7443 160.568 40.8664 159.671 40.9936 158.78C40.9936 158.642 41.0343 158.509 41.0546 158.376C41.9844 151.849 43.2478 145.378 44.8396 138.992C46.5111 132.293 48.6449 125.73 51.2242 119.353C53.9649 112.671 57.1753 106.21 60.829 100.021H90.5033Z" fill="#04AD48"/>
<path opacity="0.1" d="M102.835 179.512V252.936H213.108V179.512H102.835ZM102.835 255.208V318.265C103.466 318.398 104.086 318.53 104.712 318.642C105.552 318.812 106.396 318.966 107.256 319.098L107.765 319.173C108.1 319.231 108.441 319.279 108.782 319.321C109.632 319.449 110.481 319.544 111.326 319.629C111.723 319.672 112.135 319.703 112.536 319.741L113.518 319.815C114.052 319.857 114.582 319.889 115.111 319.91C115.436 319.91 115.762 319.937 116.093 319.948C116.423 319.958 116.601 319.948 116.866 319.948H117.827C118.265 319.948 118.702 319.948 119.135 319.948H119.694C120.132 319.948 120.569 319.948 121.002 319.905H121.027C121.332 319.905 121.633 319.905 121.938 319.868C122.024 319.873 122.111 319.873 122.197 319.868C122.452 319.868 122.706 319.868 122.95 319.836C123.008 319.831 123.066 319.831 123.123 319.836C123.688 319.799 124.258 319.751 124.833 319.698C125.407 319.645 125.952 319.581 126.527 319.518L127.681 319.369C132.4 318.68 137.067 317.644 141.646 316.269C151.938 313.276 161.995 309.088 172.282 306.025C185.57 302.071 200.262 300.123 213.103 304.937V255.208H102.835ZM213.108 97.7603V0.0105952C201.036 -0.127978 188.997 1.34361 177.283 4.38959C149.358 11.7091 124.283 27.585 102.835 47.861V97.755H108.385V100.021H102.835V177.24H213.108V100.021H131.09V97.7497L213.108 97.7603ZM354.779 64.7401C347.871 64.4853 341.003 62.2082 334.786 58.6785C322.912 51.9428 313.419 41.5287 302.817 32.7495C280.789 14.4533 253.47 3.40763 225.444 0.668771V97.7603H382.851L383.243 97.3304L354.779 64.7401ZM369.12 62.0861L384.326 79.5012V57.5054C379.208 58.1795 374.752 59.7453 369.12 62.0649V62.0861ZM384.326 333.923V255.208H351.9C351.818 254.873 351.727 254.533 351.625 254.194C351.722 254.533 351.808 254.873 351.895 255.208H225.444V312.129C226.645 313.058 227.83 314.04 229.005 315.027C230.274 316.11 231.534 317.205 232.785 318.313L234.047 319.401C234.652 319.932 235.268 320.462 235.878 320.967C237.103 321.996 238.336 323.016 239.577 324.024C240.198 324.534 240.822 325.034 241.449 325.526C251.386 333.45 261.867 340.601 272.807 346.922C275.259 348.35 277.737 349.725 280.23 351.068C281.888 351.959 283.558 352.833 285.241 353.69C287.764 354.974 290.308 356.213 292.872 357.405C316.51 368.476 341.507 376.072 367.146 379.974C372.837 380.848 378.554 381.538 384.296 382.044V333.913H384.805L384.326 333.923ZM225.444 100.021V177.24H384.326V100.021H225.444ZM225.444 179.501V252.936H384.326V179.512L225.444 179.501ZM396.658 57.3993V81.9747L416.061 59.7507C409.631 58.6431 403.163 57.8593 396.658 57.3993ZM396.658 179.512V252.936H551.185V179.512H396.658ZM550.641 339.746L551.185 255.208H396.658V382.899C406.611 383.331 416.58 383.205 426.521 382.522H426.693C431.442 382.204 436.168 381.751 440.872 381.163H440.979C466.082 378.115 490.628 371.274 513.844 360.855M580.997 191.572C580.41 190.156 579.808 188.741 579.191 187.325C578.041 184.671 576.83 182.092 575.579 179.517H563.522V252.936H594C593.975 232.14 588.928 210.908 580.997 191.572ZM563.522 255.208V327.925C572.104 319.343 579.364 309.518 584.583 298.286C590.866 284.757 593.741 270.117 593.98 255.202L563.522 255.208ZM563.522 158.116V177.224H574.449C571.137 170.656 567.489 164.277 563.522 158.116ZM458.723 71.8101C457.919 71.4864 457.111 71.1626 456.302 70.8547C447.773 67.566 439.057 64.8325 430.204 62.67L400.504 96.6722L399.924 97.3251L400.306 97.755H506.01C491.287 87.185 475.414 78.4757 458.723 71.8101ZM509.113 100.021H398.825L396.658 102.086V177.24H415.659H551.185V140.828C538.931 125.366 524.786 111.647 509.113 100.021Z" fill="#04AD48"/>
<path opacity="0.1" d="M90.5033 138.976V177.24H39.04C39.04 177.017 39.0706 176.789 39.0909 176.566C39.1367 175.956 39.1825 175.351 39.2334 174.74C39.2842 174.029 39.3504 173.318 39.4165 172.617C39.4826 171.916 39.5488 171.067 39.6302 170.298C39.7116 169.528 39.7777 168.748 39.8591 167.978C39.9405 167.208 40.0219 166.439 40.1135 165.674C40.205 164.91 40.2864 164.135 40.3882 163.371C40.4645 162.739 40.5408 162.102 40.6273 161.465C40.7443 160.568 40.8664 159.671 40.9936 158.78C40.9936 158.642 41.0343 158.509 41.0546 158.376C41.9844 151.849 43.2478 145.378 44.8396 138.992L90.5033 138.976Z" fill="#04AD48"/>
<path opacity="0.1" d="M38.8772 179.512H90.5033V252.936H42.652C42.5299 253.695 42.4078 254.449 42.2704 255.208H90.5033V314.412C90.4219 314.412 90.3405 314.348 90.2642 314.316C88.9075 313.753 87.5509 313.157 86.1943 312.527C85.9043 312.389 85.6194 312.246 85.3244 312.113C83.9677 311.444 82.6111 310.737 81.2545 309.99C80.7814 309.73 80.3083 309.459 79.8453 309.183C72.3139 304.799 65.4688 299.239 59.5469 292.697C59.3689 292.522 59.2061 292.331 59.0382 292.166C58.2141 291.232 57.4052 290.287 56.6217 289.321C56.3267 288.966 56.0418 288.605 55.7518 288.26C54.8259 287.081 53.9305 285.861 53.0657 284.634C52.9334 284.449 52.8113 284.268 52.6842 284.104C49.1413 278.989 46.2033 273.446 43.934 267.596C43.8627 267.421 43.7966 267.23 43.7305 267.065C43.0284 265.208 42.3925 263.323 41.8431 261.402C41.6091 260.6 41.3801 259.81 41.1868 258.976C41.1156 258.737 41.0596 258.493 40.9986 258.254C38.1395 246.497 37.8088 234.279 37.8088 222.118C37.8088 220.703 37.8088 219.287 37.8088 217.872C37.8495 212.907 37.9055 207.948 37.9767 202.994C38.0039 201.72 38.0293 200.441 38.053 199.156C38.1243 195.905 38.226 192.646 38.3583 189.379C38.3888 188.477 38.4295 187.569 38.4753 186.672C38.4956 186.152 38.5211 185.632 38.5516 185.112C38.6432 183.233 38.7517 181.366 38.8772 179.512Z" fill="#04AD48"/>
<path opacity="0.1" d="M141.651 111.083V177.24H102.83V111.083H108.365V88.6838H131.085V111.083H141.651Z" fill="#04AD48"/>
<path opacity="0.1" d="M141.646 179.507H102.83V252.93H141.646V179.507Z" fill="#04AD48"/>
<path opacity="0.1" d="M102.835 255.208H141.651V316.248C137.072 317.624 132.406 318.658 127.686 319.343C127.3 319.401 126.918 319.449 126.532 319.491C125.962 319.56 125.397 319.624 124.833 319.677L123.128 319.82H122.955L122.202 319.863H121.943C121.638 319.863 121.338 319.9 121.032 319.905H121.007C120.569 319.905 120.137 319.937 119.699 319.948H119.14C118.707 319.948 118.275 319.948 117.832 319.948H116.876H116.098C115.767 319.948 115.441 319.948 115.111 319.905C114.588 319.884 114.059 319.852 113.523 319.81L112.542 319.735C112.135 319.704 111.728 319.661 111.326 319.619C110.471 319.541 109.623 319.44 108.782 319.316L107.765 319.167L107.256 319.093C106.406 318.96 105.562 318.812 104.712 318.642C104.081 318.525 103.461 318.393 102.835 318.255V255.208Z" fill="#04AD48"/>
<path opacity="0.1" d="M384.321 103.27H352.312V177.235H384.321V103.27Z" fill="#04AD48"/>
<path opacity="0.1" d="M384.326 179.507V252.936H225.444V221.264H310.072V239.947H352.312V179.507H384.326Z" fill="#04AD48"/>
<path opacity="0.1" d="M384.83 333.939C384.662 333.939 384.494 333.939 384.321 333.907V382.076C378.586 381.584 372.871 380.896 367.177 380.011C341.528 376.11 316.522 368.519 292.872 357.453C286.044 354.24 279.356 350.739 272.807 346.949C261.87 340.624 251.391 333.473 241.454 325.553C238.951 323.557 236.486 321.517 234.057 319.433C232.373 317.978 230.705 316.492 229.005 315.054C227.835 314.061 226.65 313.079 225.444 312.145V255.208H351.895C351.803 254.868 351.722 254.533 351.63 254.194C351.727 254.533 351.818 254.868 351.9 255.208H384.326V333.902C384.494 333.907 384.662 333.923 384.83 333.939Z" fill="#04AD48"/>
<path opacity="0.1" d="M467.809 97.7603H446.951V90.9981H456.297V70.8547C457.107 71.1661 457.914 71.4846 458.718 71.8102V90.9981H467.804L467.809 97.7603Z" fill="#04AD48"/>
<path opacity="0.1" d="M518.067 177.24H415.659C415.669 177.243 415.68 177.243 415.69 177.24H415.644H396.658V103.275H402.04V157.946H426.632V125.568H446.956V100.021H467.814V125.584H488.128V157.962H518.072L518.067 177.24Z" fill="#04AD48"/>
<path opacity="0.1" d="M396.658 179.512V252.936H518.072V179.512H396.658ZM551.012 339.359L551.185 281.237H518.072V255.229H396.658V382.899C406.611 383.331 416.58 383.205 426.52 382.522H426.693C431.442 382.204 436.168 381.751 440.872 381.163H440.979C466.082 378.115 490.627 371.274 513.844 360.855" fill="#04AD48"/>
<path opacity="0.1" d="M565.659 255.208H593.98C593.736 270.117 590.866 284.762 584.583 298.286C579.364 309.523 572.104 319.348 563.522 327.931V281.222H565.659V255.208Z" fill="#04AD48"/>
<path opacity="0.1" d="M594 252.936H565.659V191.572H580.997C588.928 210.908 593.975 232.14 594 252.936Z" fill="#04AD48"/>
<path opacity="0.1" d="M384.326 123.833H367.177V147.023H384.326V123.833Z" fill="#04AD48"/>
<path opacity="0.1" d="M384.326 171.901H367.177V177.24H384.326V171.901Z" fill="#04AD48"/>
<path opacity="0.1" d="M384.326 179.507H367.177V195.085H384.326V179.507Z" fill="#04AD48"/>
<path opacity="0.1" d="M384.326 219.969H367.177V243.159H384.326V219.969Z" fill="#04AD48"/>
<path opacity="0.1" d="M384.326 268.037H367.177V291.227H384.326V268.037Z" fill="#04AD48"/>
<path opacity="0.1" d="M384.326 333.902C384.494 333.902 384.662 333.902 384.835 333.939C384.667 333.939 384.499 333.939 384.326 333.907V339.295H367.177V316.105H384.326V333.902Z" fill="#04AD48"/>
<path opacity="0.1" d="M384.326 364.167V382.076C378.588 381.584 372.871 380.896 367.177 380.011V364.167H384.326Z" fill="#04AD48"/>
<path opacity="0.1" d="M298.941 251.232H225.444V252.936H298.941V251.232Z" fill="#04AD48"/>
<path opacity="0.1" d="M298.941 255.202H225.444V261.731H298.941V255.202Z" fill="#04AD48"/>
<path opacity="0.1" d="M298.941 283.132H225.444V293.631H298.941V283.132Z" fill="#04AD48"/>
<path opacity="0.1" d="M298.941 315.033V325.532H241.454C238.951 323.543 236.485 321.501 234.057 319.406C232.368 317.957 230.699 316.471 229.005 315.033H298.941Z" fill="#04AD48"/>
<path opacity="0.1" d="M298.941 346.928V357.453H292.872C286.045 354.24 279.356 350.739 272.807 346.949L298.941 346.928Z" fill="#04AD48"/>
<path opacity="0.1" d="M440.989 186.625H426.521V201.72H440.989V186.625Z" fill="#04AD48"/>
<path opacity="0.1" d="M127.722 116.29H113.254V131.386H127.722V116.29Z" fill="#04AD48"/>
<path opacity="0.1" d="M127.722 151.354H113.254V166.449H127.722V151.354Z" fill="#04AD48"/>
<path opacity="0.1" d="M127.722 186.418H113.254V201.513H127.722V186.418Z" fill="#04AD48"/>
<path opacity="0.1" d="M127.722 221.476H113.254V236.572H127.722V221.476Z" fill="#04AD48"/>
<path opacity="0.1" d="M127.722 256.54H113.254V271.635H127.722V256.54Z" fill="#04AD48"/>
<path opacity="0.1" d="M127.722 291.604H113.254V306.699H127.722V291.604Z" fill="#04AD48"/>
<path opacity="0.1" d="M496.222 186.625H481.753V201.72H496.222V186.625Z" fill="#04AD48"/>
<path opacity="0.1" d="M440.989 223.859H426.521V238.955H440.989V223.859Z" fill="#04AD48"/>
<path opacity="0.1" d="M496.222 223.859H481.753V238.955H496.222V223.859Z" fill="#04AD48"/>
<path opacity="0.1" d="M440.989 261.089H426.521V276.184H440.989V261.089Z" fill="#04AD48"/>
<path opacity="0.1" d="M496.222 261.089H481.753V276.184H496.222V261.089Z" fill="#04AD48"/>
<path opacity="0.1" d="M440.989 298.323H426.521V313.419H440.989V298.323Z" fill="#04AD48"/>
<path opacity="0.1" d="M496.222 298.323H481.753V313.419H496.222V298.323Z" fill="#04AD48"/>
<path opacity="0.1" d="M440.989 335.558H426.521V350.654H440.989V335.558Z" fill="#04AD48"/>
<path opacity="0.1" d="M496.222 335.558H481.753V350.654H496.222V335.558Z" fill="#04AD48"/>
<path opacity="0.1" d="M426.521 382.522V372.787H440.984V381.137L426.521 382.522Z" fill="#04AD48"/>
<path opacity="0.1" d="M40.9937 158.36V166.996H90.5034V158.36H40.9937ZM45.9233 166.455H41.8534V158.907H45.9233V166.455ZM50.8529 166.455H46.783V158.907H50.8529V166.455ZM55.7723 166.455H51.7025V158.907H55.7723V166.455ZM60.7019 166.455H56.6321V158.907H60.7019V166.455ZM65.6264 166.455H61.5566V158.907H65.6264V166.455ZM70.556 166.455H66.4862V158.907H70.556V166.455ZM75.4856 166.455H71.4158V158.907H75.4856V166.455ZM80.4102 166.455H76.3403V158.907H80.4102V166.455ZM85.3347 166.455H81.2648V158.907H85.3347V166.455ZM90.2643 166.455H86.1944V158.907H90.2643V166.455Z" fill="#04AD48"/>
<path opacity="0.1" d="M40.9937 183.498V192.134H90.5034V183.498H40.9937ZM45.9233 191.593H41.8534V184.045H45.9233V191.593ZM50.8529 191.593H46.783V184.045H50.8529V191.593ZM55.7723 191.593H51.7025V184.045H55.7723V191.593ZM60.7019 191.593H56.6321V184.045H60.7019V191.593ZM65.6264 191.593H61.5566V184.045H65.6264V191.593ZM70.556 191.593H66.4862V184.045H70.556V191.593ZM75.4856 191.593H71.4158V184.045H75.4856V191.593ZM80.4102 191.593H76.3403V184.045H80.4102V191.593ZM85.3347 191.593H81.2648V184.045H85.3347V191.593ZM90.2643 191.593H86.1944V184.045H90.2643V191.593Z" fill="#04AD48"/>
<path opacity="0.1" d="M40.9937 208.642V217.272H90.5034V208.642H40.9937ZM45.9233 216.726H41.8534V209.178H45.9233V216.726ZM50.8529 216.726H46.783V209.178H50.8529V216.726ZM55.7723 216.726H51.7025V209.178H55.7723V216.726ZM60.7019 216.726H56.6321V209.178H60.7019V216.726ZM65.6264 216.726H61.5566V209.178H65.6264V216.726ZM70.556 216.726H66.4862V209.178H70.556V216.726ZM75.4856 216.726H71.4158V209.178H75.4856V216.726ZM80.4102 216.726H76.3403V209.178H80.4102V216.726ZM85.3347 216.726H81.2648V209.178H85.3347V216.726ZM90.2643 216.726H86.1944V209.178H90.2643V216.726Z" fill="#04AD48"/>
<path opacity="0.1" d="M40.9937 233.78V242.41H90.5034V233.78H40.9937ZM45.9233 241.869H41.8534V234.311H45.9233V241.869ZM50.8529 241.869H46.783V234.311H50.8529V241.869ZM55.7723 241.869H51.7025V234.311H55.7723V241.869ZM60.7019 241.869H56.6321V234.311H60.7019V241.869ZM65.6264 241.869H61.5566V234.311H65.6264V241.869ZM70.556 241.869H66.4862V234.311H70.556V241.869ZM75.4856 241.869H71.4158V234.311H75.4856V241.869ZM80.4102 241.869H76.3403V234.311H80.4102V241.869ZM85.3347 241.869H81.2648V234.311H85.3347V241.869ZM90.2643 241.869H86.1944V234.311H90.2643V241.869Z" fill="#04AD48"/>
<path opacity="0.1" d="M41.2327 258.907C41.426 259.725 41.6549 260.531 41.8889 261.333V259.454H45.9588V266.996H43.7763C43.8374 267.177 43.9035 267.363 43.9747 267.527H90.5237V258.907H41.2327ZM50.8986 266.996H46.8287V259.454H50.8986V266.996ZM55.818 266.996H51.7481V259.454H55.818V266.996ZM60.7476 266.996H56.6778V259.454H60.7476V266.996ZM65.6721 266.996H61.6023V259.454H65.6721V266.996ZM70.6017 266.996H66.5319V259.454H70.6017V266.996ZM75.5313 266.996H71.4615V259.454H75.5313V266.996ZM80.4559 266.996H76.386V259.454H80.4559V266.996ZM85.3804 266.996H81.3105V259.454H85.3804V266.996ZM90.31 266.996H86.2401V259.454H90.31V266.996Z" fill="#04AD48"/>
<path opacity="0.1" d="M52.6995 284.045C52.8317 284.215 52.9538 284.406 53.081 284.576H55.7722V288.201L56.6421 289.263V284.555H60.712V292.166H59.0383C59.2011 292.341 59.3588 292.527 59.547 292.697H90.4931V284.045H52.6995ZM65.6518 292.166H61.5819V284.587H65.6518V292.166ZM70.5814 292.166H66.5115V284.587H70.5814V292.166ZM75.511 292.166H71.4411V284.587H75.511V292.166ZM80.4355 292.166H76.3656V284.587H80.4355V292.166ZM85.36 292.166H81.2902V284.587H85.36V292.166ZM90.2896 292.166H86.2198V284.587H90.2896V292.166Z" fill="#04AD48"/>
<path opacity="0.1" d="M79.8606 309.183C80.3286 309.459 80.8018 309.714 81.2749 309.985V309.719H85.3447V312.113C85.6398 312.246 85.9196 312.389 86.2096 312.527V309.719H90.2794V314.316C90.3568 314.352 90.4367 314.383 90.5185 314.406V309.183H79.8606Z" fill="#04AD48"/>
<path opacity="0.1" d="M384.321 333.902H384.83H384.321ZM351.625 254.194C351.722 254.533 351.808 254.873 351.895 255.208C351.818 254.873 351.727 254.533 351.625 254.194ZM108.385 97.7603V100.021H131.11V97.7497L108.385 97.7603ZM384.326 333.902H384.835H384.326ZM351.625 254.194C351.722 254.533 351.808 254.873 351.895 255.208C351.818 254.873 351.727 254.533 351.625 254.194ZM384.321 333.902H384.83H384.321ZM351.625 254.194C351.722 254.533 351.808 254.873 351.895 255.208C351.818 254.873 351.727 254.533 351.625 254.194Z" fill="#04AD48"/>
<path opacity="0.1" d="M447.394 458C474.771 458 496.965 454.281 496.965 449.693C496.965 445.105 474.771 441.386 447.394 441.386C420.017 441.386 397.823 445.105 397.823 449.693C397.823 454.281 420.017 458 447.394 458Z" fill="#04AD48"/>
<path opacity="0.1" d="M223.827 449.693C251.204 449.693 273.397 445.974 273.397 441.386C273.397 436.799 251.204 433.08 223.827 433.08C196.449 433.08 174.256 436.799 174.256 441.386C174.256 445.974 196.449 449.693 223.827 449.693Z" fill="#04AD48"/>
<path d="M280.896 221.736C280.884 221.683 280.857 221.636 280.82 221.598C280.062 220.818 270.396 206.556 270.396 206.556C270.396 206.556 269.887 204.963 269.063 202.893C269.327 202.536 269.525 202.131 269.648 201.699C269.692 201.516 269.725 201.33 269.745 201.142C269.745 201.083 269.785 201.036 269.801 200.977C269.977 200.257 269.96 199.5 269.75 198.79C269.693 198.972 269.623 199.15 269.541 199.321C269.35 198.703 269.094 198.108 268.778 197.548C267.496 195.245 265.665 193.302 264.316 191.057C262.275 187.568 261.464 183.446 262.022 179.401C262.022 179.608 262.022 179.82 262.022 180.027C262.073 179.225 262.175 178.427 262.327 177.638C262.54 176.741 262.824 175.864 263.177 175.016C264.388 172.124 266.346 169.602 267.537 166.699C267.936 165.72 268.24 164.701 268.442 163.658C268.862 161.915 269.015 160.115 268.895 158.323C268.895 158.748 268.829 159.172 268.768 159.592C268.639 155.283 266.972 151.181 264.093 148.09C259.936 143.732 253.969 142.039 248.261 141.147C245.862 140.855 243.572 139.943 241.597 138.493C239.404 137.012 236.57 136.656 234.006 136.98C231.059 137.313 228.321 138.725 226.279 140.966C223.567 144.077 222.392 148.482 219.228 151.104C217.31 152.697 214.878 153.44 212.645 154.523C210.411 155.605 208.3 157.177 207.583 159.501C207.583 159.501 207.583 159.47 207.583 159.454V159.586L207.552 159.671C206.809 162.421 208.244 165.218 208.992 167.962C209.77 170.802 209.821 173.801 209.862 176.736C209.918 180.324 209.969 183.918 209.913 187.511C209.887 188.923 209.841 190.351 209.74 191.757C208.536 192.137 207.366 192.627 206.245 193.222C205.105 193.997 200.842 198.801 200.842 198.801L192.504 232.039L192.616 232.171L192.504 232.623L192.926 232.522C194.106 233.849 197.632 237.628 201.437 239.985L201.793 246.503C201.793 246.503 202.221 253.042 207.985 255.744C208.117 258.01 208.529 267.214 206.621 270.861C205.3 273.524 204.679 276.506 204.82 279.502C204.82 279.502 205.487 285.033 204.729 287.941C204.286 289.885 204.253 291.906 204.632 293.865C204.632 293.865 204.632 294.507 204.632 295.611C204.632 301.498 204.698 320.362 204.632 322.495C204.535 325.017 204.632 362.304 204.632 362.304C204.632 362.304 204.159 380.94 202.643 385.988C201.127 391.036 201.508 407.75 201.508 407.75C201.508 407.75 200.557 427.66 203.92 431.588C203.92 431.763 203.889 431.944 203.884 432.119C203.884 432.198 203.884 432.289 203.884 432.368C203.844 433.881 204.123 435.489 205.37 435.983C207.913 437.002 211.276 440.059 211.912 440.935C212.548 441.811 216.246 443.993 221.069 443.409C224.09 443.054 227.131 442.909 230.17 442.973C230.17 442.973 232.073 442.612 231.457 440.144C231.061 438.605 229.575 436.238 228.517 434.683C228.71 434.736 228.899 434.778 229.077 434.815L229.26 434.852H229.402C229.48 434.857 229.558 434.857 229.636 434.852H229.738C229.833 434.861 229.928 434.861 230.023 434.852C231.3 434.725 236.062 437.039 236.911 438.568C237.761 440.097 240.757 441.259 243.016 441.551C244.359 441.721 247.747 441.434 250.591 441.052C252.023 440.898 253.441 440.628 254.834 440.245C255.505 439.98 255.648 439.131 255.454 438.175C255.226 436.962 254.604 435.867 253.694 435.075C252.87 434.465 251.781 432.857 250.978 431.54L250.764 431.185C252.183 429.773 254.747 425.155 255.526 424.2C256.472 423.037 253.999 380.526 253.999 380.526V359.215L257.789 339.045L260.44 328.371L262.714 312.257C262.714 312.257 266.692 293.435 265.466 291.588C265.466 291.551 264.449 272.172 263.38 267.517C262.917 265.441 263.034 260.77 263.309 256.227C263.596 255.929 263.796 255.553 263.886 255.141C263.977 254.73 263.953 254.3 263.818 253.902C263.742 253.63 263.643 253.365 263.523 253.111C263.523 253.031 263.523 252.946 263.523 252.867C265.72 251.812 268.017 250.997 270.375 250.436C274.165 249.661 273.219 247.623 273.219 247.623C273.219 247.623 274.074 245.876 274.639 244.81C275.203 243.743 274.735 234.326 274.639 233.552C274.603 233.238 274.369 231.508 274.099 229.544C275.315 228.642 276.897 227.522 278.622 226.46C281.903 224.433 281.166 222.294 280.896 221.736ZM231.447 356.307C231.447 356.307 228.603 363.876 229.743 365.813C230.883 367.75 229.555 374.943 229.555 374.943L228.603 385.617C228.603 385.617 225.953 405.415 226.899 410.07C227.642 413.722 227.917 424.629 228.003 429.178C227.938 429.205 227.875 429.237 227.815 429.274L227.688 429.343C228.125 427.554 227.942 423.934 225.77 416.652L225.587 386.572C225.587 386.572 225.251 351.827 227.881 347.941C230.511 344.056 231.442 337.458 231.442 337.458C231.442 337.458 230.872 346.975 230.501 349.497C230.13 352.018 231.447 356.307 231.447 356.307ZM226.151 431.073C226.126 431.137 226.095 431.201 226.075 431.259L225.933 431.068C226.005 431.075 226.078 431.077 226.151 431.073Z" fill="url(#paint0_linear_156_797)"/>
<path d="M255.154 442.995C253.684 443.584 245.712 444.587 243.484 444.306C241.256 444.024 238.305 442.846 237.466 441.307C236.626 439.767 231.92 437.443 230.659 437.591C230.142 437.607 229.626 437.532 229.133 437.368C228.262 437.093 227.412 436.753 226.589 436.349C226.474 435.68 226.493 434.993 226.645 434.332C226.674 434.199 226.712 434.068 226.757 433.939C227.054 433.069 227.668 432.355 228.466 431.954L228.649 431.864C229.002 431.705 229.371 431.588 229.748 431.514C233.747 430.712 250.245 432.321 250.245 432.321C250.245 432.321 250.708 433.186 251.344 434.258C252.137 435.585 253.216 437.204 254.03 437.814C254.932 438.618 255.544 439.719 255.765 440.935C255.958 441.875 255.816 442.735 255.154 442.995Z" fill="white"/>
<path opacity="0.1" d="M255.154 442.995C253.684 443.584 245.717 444.587 243.489 444.306C241.261 444.024 238.31 442.841 237.466 441.307C236.621 439.773 231.926 437.443 230.664 437.591C229.402 437.74 226.594 436.349 226.594 436.349C226.594 436.349 226.157 434.226 227.428 432.777L229.972 434.661C229.972 434.661 236.779 436.864 238.041 438.908C239.302 440.951 241.602 442.092 244.924 442.299C247.406 442.469 253.109 441.461 255.78 440.956C255.958 441.875 255.821 442.735 255.154 442.995Z" fill="black"/>
<path d="M230.801 445.702C227.8 445.641 224.799 445.788 221.817 446.142C217.04 446.726 213.392 444.55 212.757 443.653C212.121 442.756 208.829 439.725 206.301 438.663C205.064 438.165 204.775 436.54 204.83 435.022C204.83 434.943 204.83 434.852 204.83 434.773C204.877 433.811 205.014 432.857 205.237 431.922L225.032 431.482L226.747 433.908L227.011 434.279L228.054 435.76C228.054 435.76 228.527 436.408 229.148 437.352C230.196 438.945 231.661 441.296 232.053 442.851C232.678 445.341 230.801 445.702 230.801 445.702Z" fill="white"/>
<path opacity="0.1" d="M230.801 445.702C227.8 445.641 224.799 445.788 221.817 446.142C217.045 446.726 213.392 444.55 212.762 443.653C212.131 442.756 208.829 439.699 206.301 438.674C205.064 438.175 204.775 436.551 204.83 435.033C206.245 435.378 209.216 436.259 210.381 437.793C211.907 439.842 214.639 443.287 218.52 443.504C221.654 443.679 229.285 443.096 232.083 442.862C232.684 445.341 230.801 445.702 230.801 445.702Z" fill="black"/>
<path opacity="0.1" d="M228.446 431.933C228.217 433.706 227.51 434.184 227.001 434.29C226.877 434.315 226.749 434.315 226.625 434.29C226.558 434.285 226.491 434.274 226.426 434.258C226.426 434.258 208.651 438.356 205.06 435.038C204.968 434.953 204.883 434.861 204.805 434.762C204.852 433.801 204.988 432.846 205.212 431.912L225.007 431.471L226.721 433.897C227.018 433.026 227.633 432.313 228.431 431.912L228.446 431.933Z" fill="black"/>
<path opacity="0.1" d="M251.339 434.237C250.942 434.693 250.611 434.953 250.403 434.863C249.467 434.47 241.795 433.106 239.358 434.279C236.921 435.452 228.675 434.47 228.675 434.47C228.675 434.47 228.675 433.451 228.629 431.816C228.982 431.657 229.35 431.54 229.728 431.466C233.726 430.664 250.225 432.273 250.225 432.273C250.225 432.273 250.708 433.164 251.339 434.237Z" fill="black"/>
<path d="M262.948 314.173L260.7 330.383L258.085 341.126L254.34 361.434V382.931C254.34 382.931 256.772 425.702 255.836 426.869C254.9 428.037 251.344 434.688 250.408 434.3C249.472 433.913 241.8 432.543 239.363 433.711C236.926 434.879 228.68 433.908 228.68 433.908C228.68 433.908 228.492 417.31 227.556 412.623C226.62 407.936 229.24 388.016 229.24 388.016L230.176 377.278C230.176 377.278 231.488 370.049 230.364 368.095C229.24 366.142 232.048 358.541 232.048 358.541C232.048 358.541 230.74 354.236 231.117 351.699C231.493 349.162 232.048 339.592 232.048 339.592C232.048 339.592 231.117 346.237 228.517 350.139C225.918 354.04 226.248 389.003 226.248 389.003L226.431 419.258C231.117 435.277 226.431 433.711 226.431 433.711C226.431 433.711 208.656 437.814 205.065 434.491C201.473 431.169 202.501 410.256 202.501 410.256C202.501 410.256 202.129 393.462 203.625 388.387C205.121 383.313 205.594 364.56 205.594 364.56C205.594 364.56 205.497 327.06 205.594 324.528C205.665 322.405 205.594 303.398 205.594 297.458C205.594 296.354 205.594 295.701 205.594 295.701L207.741 290.139L233.177 286.816H245.346C245.346 286.816 263.66 291.306 265.553 293.244C265.593 293.276 265.628 293.316 265.655 293.361C266.881 295.234 262.948 314.173 262.948 314.173Z" fill="#AADBFF"/>
<path opacity="0.1" d="M232.063 399.322C232.063 399.322 237.659 413.382 240.299 414.359C242.94 415.335 232.063 399.322 232.063 399.322Z" fill="black"/>
<path opacity="0.1" d="M234.134 420.022C234.134 420.022 253.028 420.999 252.84 423.149C252.651 425.298 234.134 420.022 234.134 420.022Z" fill="black"/>
<path opacity="0.1" d="M208.855 414.401C209.603 415.139 223.267 416.524 222.143 417.873C221.019 419.221 209.979 421.843 209.979 421.843L208.855 414.401Z" fill="black"/>
<path opacity="0.1" d="M206.611 390.144C206.611 390.728 209.419 408.892 210.172 409.672C210.925 410.452 217.096 411.232 217.096 411.232L206.611 390.144Z" fill="black"/>
<path d="M226.986 141.874C224.305 145 223.145 149.432 220.021 152.076C218.124 153.668 215.722 154.427 213.515 155.51C211.307 156.593 209.119 158.244 208.463 160.696C207.73 163.456 209.145 166.274 209.887 169.034C210.655 171.89 210.701 174.873 210.747 177.861C210.798 181.476 210.854 185.091 210.793 188.705C210.701 194.337 210.254 200.229 207.389 205.001C217.732 208.435 228.731 208.902 239.577 209.342C241.661 209.497 243.755 209.442 245.829 209.178C247.627 208.804 249.404 208.335 251.156 207.771C254.618 206.815 258.186 206.339 261.768 206.354C263.33 206.354 264.922 206.455 266.428 206.03C267.934 205.606 269.383 204.517 269.79 202.946C270.152 201.534 269.623 200.032 268.931 198.764C267.669 196.45 265.878 194.517 264.525 192.235C263.144 189.824 262.324 187.109 262.132 184.307C261.941 181.505 262.382 178.696 263.421 176.104C264.622 173.19 266.555 170.653 267.735 167.734C268.944 164.6 269.265 161.169 268.661 157.85C268.057 154.53 266.553 151.462 264.327 149.008C260.221 144.624 254.33 142.925 248.693 142.023C246.32 141.73 244.056 140.817 242.11 139.369C239.948 137.883 237.145 137.522 234.612 137.851C231.689 138.192 228.982 139.621 226.986 141.874Z" fill="#3F3D56"/>
<g opacity="0.1">
<path d="M263.579 173.042C262.542 175.6 262.097 178.376 262.282 181.147C262.396 179.166 262.834 177.22 263.579 175.393C264.774 172.479 266.708 169.942 267.888 167.023C268.853 164.585 269.259 161.946 269.073 159.316C268.968 161.159 268.568 162.971 267.888 164.677C266.708 167.596 264.774 170.128 263.579 173.042Z" fill="black"/>
<path d="M210.9 177.139C210.93 179.22 210.961 181.306 210.966 183.387C210.966 180.521 210.94 177.66 210.9 174.799C210.859 171.832 210.808 168.827 210.04 165.966C209.531 164.151 208.778 162.309 208.514 160.478C208.061 163.079 209.348 165.717 210.04 168.313C210.808 171.147 210.859 174.172 210.9 177.139Z" fill="black"/>
<path d="M266.601 202.994C265.075 203.424 263.508 203.329 261.946 203.318C258.367 203.294 254.801 203.762 251.339 204.709C249.587 205.27 247.81 205.737 246.012 206.11C243.937 206.379 241.841 206.436 239.755 206.28C229.275 205.85 218.648 205.388 208.61 202.262C208.312 202.956 207.973 203.629 207.593 204.279C217.936 207.708 228.934 208.18 239.775 208.62C241.861 208.776 243.957 208.72 246.033 208.451C247.823 208.082 249.595 207.616 251.339 207.055C254.794 206.104 258.353 205.631 261.926 205.648C263.487 205.648 265.075 205.749 266.58 205.319C268.086 204.889 269.536 203.812 269.943 202.24C270.115 201.513 270.097 200.751 269.892 200.032C269.439 201.519 268.04 202.554 266.601 202.994Z" fill="black"/>
</g>
<path d="M251.532 196.704C251.156 197.585 249.568 205.197 249.192 205.977C248.815 206.757 246.76 219.247 246.572 219.947C246.384 220.648 233.024 217.017 233.024 217.017L224.981 209.985L216.714 201.402C216.714 201.402 216.47 193.658 222.56 191.173C222.974 191.004 223.399 190.866 223.832 190.759C231.218 188.907 230.476 165.473 230.476 165.473L245.636 172.304C245.636 172.304 242.828 185.977 242.924 188.615C242.95 189.502 243.616 190.054 244.486 190.388C245.831 190.787 247.231 190.945 248.627 190.855C248.627 190.855 251.909 195.828 251.532 196.704Z" fill="#FBBEBE"/>
<path d="M278.673 222.384L280.825 222.973C280.825 222.973 282.417 225.499 278.673 227.851C276.295 229.358 274.013 231.022 271.841 232.835L260.776 236.349L258.644 229.369L268.941 221.216L278.673 222.384Z" fill="#AADBFF"/>
<path opacity="0.1" d="M278.372 220.866L280.523 221.455C280.523 221.455 282.116 223.981 278.372 226.333C275.994 227.84 273.712 229.504 271.539 231.317L260.474 234.831L258.343 227.851L268.639 219.698L278.372 220.866Z" fill="black"/>
<path d="M197.922 229.125L193.618 233.52C193.618 233.52 201.381 242.893 207.354 243.477C213.326 244.061 217.178 236.349 217.178 236.349L212.009 227.856L197.922 229.125Z" fill="#AADBFF"/>
<path opacity="0.1" d="M221.161 224.346L216.857 228.741C216.857 228.741 224.62 238.115 230.593 238.699C236.565 239.282 240.417 231.57 240.417 231.57L235.248 223.078L221.161 224.346Z" fill="#AADBFF"/>
<path opacity="0.1" d="M238.804 180.786C247.073 180.786 253.776 173.792 253.776 165.165C253.776 156.538 247.073 149.544 238.804 149.544C230.535 149.544 223.832 156.538 223.832 165.165C223.832 173.792 230.535 180.786 238.804 180.786Z" fill="black"/>
<path d="M238.804 179.613C247.073 179.613 253.776 172.619 253.776 163.992C253.776 155.365 247.073 148.371 238.804 148.371C230.535 148.371 223.832 155.365 223.832 163.992C223.832 172.619 230.535 179.613 238.804 179.613Z" fill="#FBBEBE"/>
<path opacity="0.1" d="M265.665 295.133C262.256 295.54 258.898 296.325 255.648 297.474C250.052 299.417 206.199 297.506 205.589 297.474C205.589 296.37 205.589 295.717 205.589 295.717L207.735 290.155L233.172 286.832H245.341C245.341 286.832 263.655 291.322 265.548 293.26C265.624 294.427 265.665 295.133 265.665 295.133Z" fill="black"/>
<path opacity="0.1" d="M251.532 196.704C251.156 197.585 249.568 205.197 249.192 205.977C248.815 206.757 246.76 219.247 246.572 219.947C246.384 220.648 233.024 217.018 233.024 217.018L224.981 209.985L216.714 201.402C216.714 201.402 216.47 193.658 222.56 191.174L237.679 209.31L244.486 190.388C245.831 190.787 247.231 190.945 248.627 190.855C248.627 190.855 251.909 195.829 251.532 196.704Z" fill="black"/>
<path d="M237.679 209.894L222.204 191.317C221.298 190.713 220.263 190.354 219.191 190.272C218.119 190.19 217.044 190.386 216.063 190.844C212.599 192.41 208.295 193.679 207.171 194.459C206.047 195.239 201.834 200.069 201.834 200.069L214.38 234.311L208.855 256.864C208.855 256.864 209.699 268.387 207.547 272.586C206.237 275.27 205.623 278.266 205.767 281.275C205.767 281.275 206.423 286.842 205.675 289.767C205.238 291.723 205.205 293.753 205.578 295.723C205.578 295.723 250.037 297.676 255.648 295.723C258.897 294.57 262.255 293.785 265.665 293.382C265.665 293.382 264.647 273.849 263.63 269.162C262.612 264.475 264.474 246.609 264.474 246.609L263.258 227.469L270.554 207.83C270.554 207.83 266.601 195.239 262.48 193.971C262.48 193.971 254.997 192.113 253.404 191.237C251.812 190.361 247.132 189.576 247.132 189.576L244.675 190.436L237.679 209.894Z" fill="#AADBFF"/>
<path opacity="0.1" d="M259.271 226.822L226.706 224.512C225.882 224.454 225.168 225.103 225.112 225.963L221.616 279.608C221.56 280.468 222.183 281.212 223.007 281.271L255.572 283.581C256.396 283.64 257.11 282.99 257.166 282.13L260.662 228.485C260.718 227.625 260.095 226.881 259.271 226.822Z" fill="black"/>
<path d="M260.392 225.657L227.827 223.347C227.003 223.288 226.29 223.938 226.234 224.798L222.738 278.443C222.682 279.303 223.304 280.047 224.128 280.106L256.693 282.416C257.517 282.474 258.231 281.825 258.287 280.965L261.783 227.32C261.839 226.46 261.217 225.716 260.392 225.657Z" fill="#3F3D56"/>
<path d="M259.318 229.862L228.346 227.665L225.164 276.501L256.135 278.699L259.318 229.862Z" fill="white"/>
<path opacity="0.1" d="M256.541 242.328L231.241 240.48L230.748 247.837L256.047 249.684L256.541 242.328Z" fill="black"/>
<path opacity="0.1" d="M255.625 271.563L251.611 271.278L251.361 275.112L255.376 275.397L255.625 271.563Z" fill="black"/>
<path opacity="0.1" d="M251.665 262.31L231.114 260.852L230.864 264.686L251.415 266.144L251.665 262.31Z" fill="black"/>
<path d="M255.484 228.036L234.086 226.518L233.702 232.412L255.1 233.93L255.484 228.036Z" fill="#3F3D56"/>
<path opacity="0.1" d="M255.484 228.036L234.086 226.518L233.702 232.412L255.1 233.93L255.484 228.036Z" fill="black"/>
<path opacity="0.1" d="M239.552 294.056C239.552 294.056 239.363 322.963 232.063 339.56C232.063 339.56 240.864 317.687 240.864 316.811C240.864 315.935 245.728 306.752 244.425 304.019C243.123 301.285 239.552 294.056 239.552 294.056Z" fill="black"/>
<path opacity="0.1" d="M239.948 160.085C239.669 157.527 240.269 154.948 241.642 152.808C241.479 154.953 242.06 157.087 243.28 158.822C244.5 160.556 246.277 161.775 248.286 162.256C248.115 162.101 247.992 161.895 247.935 161.666C247.878 161.437 247.889 161.195 247.966 160.972C249.009 162.203 249.807 163.663 250.988 164.746C252.168 165.828 253.938 166.476 255.327 165.706C257.215 164.645 257.235 161.847 256.747 159.671C255.699 155.037 253.548 150.752 250.494 147.214C249.732 146.144 248.743 145.273 247.605 144.669C246.466 144.065 245.209 143.744 243.932 143.732C241.042 143.498 238.041 143.764 235.451 145.117C233.994 145.947 232.629 146.942 231.381 148.084L224.259 154.146C223.574 154.661 222.987 155.305 222.529 156.046C222.224 156.665 222.04 157.342 221.99 158.036C221.808 160.022 222.16 162.02 223.007 163.808C223.853 165.596 225.161 167.103 226.782 168.159C226.748 166.59 227.162 165.045 227.971 163.722C228.779 162.399 229.947 161.357 231.325 160.728C231.541 160.916 231.716 161.15 231.838 161.415C231.96 161.679 232.026 161.968 232.032 162.262L233.533 159.47C233.756 158.962 234.108 158.527 234.551 158.212C235.477 157.681 236.631 158.307 237.42 159.056C238.208 159.804 238.977 160.738 240.035 160.855L240.075 156.699" fill="black"/>
<path opacity="0.1" d="M239.948 160.085C239.669 157.527 240.269 154.948 241.642 152.808C241.479 154.953 242.06 157.087 243.28 158.822C244.5 160.556 246.277 161.775 248.286 162.256C248.115 162.101 247.992 161.895 247.935 161.666C247.878 161.437 247.889 161.195 247.966 160.972C249.009 162.203 249.807 163.663 250.988 164.746C252.168 165.828 253.938 166.476 255.327 165.706C257.215 164.645 257.235 161.847 256.747 159.671C255.699 155.037 253.548 150.752 250.494 147.214C249.732 146.144 248.743 145.273 247.605 144.669C246.466 144.065 245.209 143.744 243.932 143.732C241.042 143.498 238.041 143.764 235.451 145.117C233.994 145.947 232.629 146.942 231.381 148.084L224.259 154.146C223.574 154.661 222.987 155.305 222.529 156.046C222.224 156.665 222.04 157.342 221.99 158.036C221.808 160.022 222.16 162.02 223.007 163.808C223.853 165.596 225.161 167.103 226.782 168.159C226.748 166.59 227.162 165.045 227.971 163.722C228.779 162.399 229.947 161.357 231.325 160.728C231.541 160.916 231.716 161.15 231.838 161.415C231.96 161.679 232.026 161.968 232.032 162.262L233.533 159.47C233.756 158.962 234.108 158.527 234.551 158.212C235.477 157.681 236.631 158.307 237.42 159.056C238.208 159.804 238.977 160.738 240.035 160.855L240.075 156.699" fill="black"/>
<path d="M239.948 159.501C239.668 156.941 240.268 154.36 241.642 152.219C241.184 156.465 244.252 160.85 248.291 161.667C248.12 161.513 247.997 161.308 247.94 161.08C247.883 160.851 247.893 160.61 247.971 160.388C249.014 161.619 249.813 163.074 250.993 164.162C252.173 165.25 253.943 165.892 255.332 165.117C257.22 164.056 257.24 161.258 256.752 159.087C255.704 154.453 253.553 150.168 250.499 146.63C249.552 145.425 248.358 144.456 247.004 143.795C246.025 143.417 244.995 143.199 243.952 143.148C241.062 142.914 238.061 143.174 235.471 144.528C234.015 145.361 232.65 146.358 231.402 147.5L224.279 153.562C223.593 154.076 223.006 154.72 222.55 155.462C222.243 156.081 222.06 156.758 222.01 157.453C221.829 159.437 222.181 161.435 223.028 163.222C223.874 165.009 225.181 166.515 226.803 167.569C226.77 166.001 227.184 164.457 227.993 163.134C228.801 161.811 229.968 160.769 231.346 160.138C231.561 160.327 231.735 160.562 231.857 160.826C231.979 161.091 232.045 161.379 232.053 161.672L233.548 158.891C233.77 158.382 234.122 157.947 234.566 157.633C235.492 157.102 236.647 157.729 237.435 158.477C238.224 159.225 238.992 160.154 240.05 160.276L240.091 156.115" fill="#3F3D56"/>
<path d="M247.04 258.031C245.733 257.341 224.111 260.86 224.111 260.86C224.111 260.86 220.55 259.799 211.943 258.323C203.335 256.848 202.785 248.069 202.785 248.069L201.844 230.494L204.749 227.84L217.193 236.333C217.193 236.333 217.386 240.627 217.193 241.402C217.071 241.933 216.745 242.564 216.776 242.994C216.785 243.111 216.831 243.221 216.906 243.307C216.982 243.393 217.082 243.451 217.193 243.472C218.037 243.695 229.545 245.637 229.545 245.637C229.545 245.637 256.217 243.732 262.867 253.106C263.393 253.794 263.792 254.579 264.042 255.42C265.69 261.826 248.225 258.642 247.04 258.031Z" fill="#FBBEBE"/>
<path opacity="0.1" d="M264.057 255.457C263.04 255.929 262.409 256.269 262.409 256.269C262.409 256.269 252.865 255.977 247.503 253.95C242.141 251.922 235.624 252.283 235.624 252.283C235.624 252.283 213.281 248.27 216.745 243.031C216.755 243.148 216.8 243.258 216.876 243.344C216.951 243.43 217.052 243.488 217.162 243.509C218.007 243.732 229.514 245.675 229.514 245.675C229.514 245.675 256.187 243.769 262.836 253.143C263.379 253.827 263.794 254.612 264.057 255.457V255.457Z" fill="black"/>
<path d="M273.336 224.533C273.336 224.533 274.649 234.199 274.74 234.985C274.832 235.77 275.305 245.234 274.74 246.312C274.176 247.389 273.336 249.141 273.336 249.141C273.336 249.141 274.272 251.19 270.528 251.975C266.784 252.761 262.388 255.096 262.388 255.096C262.388 255.096 252.839 254.804 247.508 252.755C242.176 250.707 235.624 251.094 235.624 251.094C235.624 251.094 207.262 246.014 219.431 239.815C231.6 233.615 240.208 242.012 240.208 242.012L253.776 241.136C253.776 241.136 258.832 237.909 260.236 238.207C261.228 238.338 262.235 238.169 263.136 237.718L263.233 227.463L273.336 224.533Z" fill="#FBBEBE"/>
<path opacity="0.1" d="M204.536 200.807L201.819 200.659L193.588 234.098C193.588 234.098 202.475 231.752 206.306 234.098C210.137 236.444 217.162 236.927 217.162 236.927L214.542 210.271L204.536 200.807Z" fill="black"/>
<path d="M204.536 200.218L201.819 200.069L193.588 233.509C193.588 233.509 202.475 231.163 206.306 233.509C210.137 235.855 217.162 236.338 217.162 236.338L214.542 209.682L204.536 200.218Z" fill="#AADBFF"/>
<path opacity="0.1" d="M266.789 207.543L270.528 208.424C270.528 208.424 280.077 222.755 280.825 223.557C281.573 224.358 277.264 227.272 275.488 227.272C273.713 227.272 265.008 228.334 262.48 230.786C259.952 233.238 261.005 220.898 261.005 220.616C261.005 220.335 264.143 212.548 264.143 212.548L266.789 207.543Z" fill="black"/>
<path d="M266.789 206.959L270.528 207.835C270.528 207.835 280.077 222.193 280.825 222.973C281.573 223.753 277.264 226.688 275.488 226.688C273.713 226.688 265.008 227.75 262.48 230.202C259.952 232.655 261.005 220.314 261.005 220.032C261.005 219.751 264.164 211.938 264.164 211.938L266.789 206.959Z" fill="#AADBFF"/>
<g opacity="0.1">
<path d="M241.617 152.267C241.595 151.86 241.604 151.452 241.642 151.046C240.868 152.259 240.335 153.622 240.076 155.053V156.285C240.076 156.285 240.076 156.258 240.076 156.242V156.534C240.076 157.394 240.076 158.259 240.05 159.119H239.979V159.517C239.979 159.379 239.979 159.247 239.953 159.109C238.936 158.939 238.209 158.047 237.451 157.336C236.693 156.625 235.507 155.945 234.581 156.492C234.138 156.806 233.786 157.241 233.564 157.75L232.053 160.531C232.046 160.239 231.98 159.951 231.858 159.687C231.736 159.423 231.561 159.19 231.346 159.003C229.968 159.632 228.8 160.674 227.991 161.997C227.182 163.32 226.768 164.864 226.803 166.434C225.413 165.525 224.25 164.284 223.411 162.814C222.571 161.344 222.079 159.686 221.975 157.978C221.886 159.885 222.287 161.782 223.136 163.474C223.985 165.166 225.25 166.59 226.803 167.601C226.77 166.033 227.184 164.489 227.993 163.166C228.801 161.843 229.968 160.8 231.346 160.17C231.561 160.359 231.735 160.594 231.857 160.858C231.979 161.123 232.046 161.411 232.053 161.704L233.549 158.923C233.77 158.414 234.122 157.979 234.566 157.665C235.492 157.134 236.647 157.76 237.435 158.509C238.224 159.257 238.992 160.186 240.05 160.308C240.05 158.949 240.064 157.594 240.091 156.242C240.34 154.824 240.859 153.473 241.617 152.267V152.267Z" fill="black"/>
<path d="M239.898 157.612C239.923 157.251 239.964 156.89 240.015 156.55L240.071 155.085C239.918 155.917 239.859 156.766 239.898 157.612Z" fill="black"/>
<path d="M255.333 163.944C253.944 164.719 252.173 164.072 250.993 162.989C249.813 161.906 249.014 160.446 247.971 159.215C247.894 159.438 247.883 159.68 247.941 159.909C247.998 160.138 248.12 160.344 248.292 160.499C248.19 160.499 248.093 160.446 247.997 160.42C249.014 161.641 249.823 163.074 250.993 164.135C252.163 165.197 253.944 165.866 255.333 165.091C256.721 164.316 257.118 162.5 256.996 160.733C256.905 162.124 256.426 163.328 255.333 163.944Z" fill="black"/>
<path d="M247.966 160.409C246.265 159.925 244.746 158.911 243.613 157.501C242.48 156.091 241.787 154.354 241.627 152.522C241.337 156.688 244.349 160.866 248.292 161.667C248.124 161.515 248.003 161.314 247.945 161.09C247.887 160.866 247.894 160.629 247.966 160.409V160.409Z" fill="black"/>
</g>
<path d="M492.279 247.161C492.279 247.161 490.275 246.869 490.275 243.828C490.275 240.786 488.84 235.091 488.84 235.091C488.84 235.091 487.599 225.181 485.884 223.61C484.17 222.039 481.967 212.814 481.967 212.814C481.967 212.814 481.591 207.808 480.822 206.731C480.054 205.653 479.016 203.015 477.485 199.252C475.954 195.489 469.585 192.909 469.585 192.909C469.585 192.909 458.041 185.924 454.77 183.647C454.471 183.458 454.191 183.238 453.936 182.989C453.366 182.214 450.884 182.198 450.884 182.198C450.624 180.483 450.375 178.52 450.293 176.741C450.293 176.55 450.293 176.359 450.293 176.168C453.941 173.919 456.688 170.372 458.031 166.179C458.092 165.977 458.143 165.77 458.199 165.563C458.422 165.491 458.628 165.371 458.804 165.21C458.979 165.049 459.12 164.851 459.217 164.629C459.507 163.944 459.517 163.148 459.883 162.506C460.31 161.752 461.124 161.349 461.765 160.786C463.383 159.348 463.8 156.932 463.724 154.74C463.673 152.957 463.398 151.163 463.505 149.395C463.505 149.247 463.505 149.098 463.536 148.949C463.566 148.689 463.602 148.419 463.648 148.164C463.897 146.847 464.441 145.605 464.746 144.3C465.052 142.994 465.082 141.524 464.37 140.398C463.327 138.748 461.155 138.419 459.247 138.275C457.085 138.084 455.177 138.328 453.768 136.455C453.122 135.476 452.393 134.56 451.591 133.716C451.306 133.44 448.538 131.672 448.538 131.561C445.83 130.247 442.759 130 439.89 130.865C438.45 131.301 437.102 132.012 435.642 132.368C432.508 133.143 428.896 132.304 426.23 134.178C424.745 135.239 423.855 136.932 423.02 138.573C422.342 139.924 421.654 141.278 420.955 142.633C419.825 144.857 418.686 147.118 418.213 149.581C418.114 150.119 418.051 150.663 418.025 151.211C418.025 151.407 418.025 151.603 418.025 151.8C418.025 151.885 418.025 151.97 418.025 152.055C418.025 152.235 418.025 152.415 418.055 152.585C418.086 152.755 418.055 152.803 418.091 152.914C418.126 153.026 418.137 153.275 418.167 153.445C418.198 153.615 418.259 153.918 418.32 154.146C418.32 154.247 418.381 154.342 418.411 154.443C418.442 154.544 418.523 154.799 418.589 154.974C418.655 155.149 418.66 155.16 418.701 155.25C418.778 155.436 418.869 155.616 418.961 155.781C419.001 155.85 419.032 155.919 419.073 155.988C419.212 156.236 419.369 156.474 419.541 156.699C420.624 158.116 422.232 159.018 423.417 160.345C423.417 160.398 423.417 160.452 423.417 160.505C423.417 160.648 423.417 160.791 423.417 160.94C423.49 163.9 424.254 166.796 425.645 169.377C427.035 171.958 429.009 174.145 431.394 175.749C431.394 175.951 431.419 176.158 431.43 176.365C431.529 177.938 431.51 179.518 431.374 181.089C431.166 180.835 430.907 180.632 430.614 180.496C430.322 180.36 430.005 180.294 429.685 180.303C429.466 180.292 429.247 180.311 429.034 180.361L428.988 180.324V180.372C427.869 180.659 426.49 181.874 425.172 185.33C425.172 185.33 421.163 190.043 418.111 189.847C415.059 189.65 407.331 194.756 407.331 194.756C407.331 194.756 399.792 199.857 398.174 205.059C397.27 208.009 396.184 210.896 394.923 213.7L385.578 233.721L383.863 249.645C383.863 249.645 384.815 256.71 384.626 257.793C384.438 258.875 388.539 268.589 388.539 268.589C388.539 268.589 402.086 293.419 407.621 294.693L408.018 294.406C408.256 294.531 408.507 294.628 408.766 294.693L409.905 293.859C409.976 294.793 409.945 295.731 409.814 296.657C409.056 299.114 410.104 315.112 411.437 318.249C412.769 321.386 412.296 362.522 412.296 362.522L412.108 366.147C412.108 366.147 412.108 366.264 412.154 366.466L412.108 367.326L412.245 367.4C412.388 368.553 412.341 369.724 412.108 370.861C411.63 372.453 411.437 376.949 411.437 376.949C411.437 376.949 407.621 402.363 409.432 407.469C411.243 412.575 412.774 418.17 412.774 418.17C412.774 418.17 414.682 424.539 412.866 425.601C411.05 426.662 405.907 428.547 406.955 431.195C407.921 433.647 411.589 440.219 412.133 441.179L412.088 441.71L411.34 450.166C411.461 451.282 411.751 452.371 412.2 453.393C413.019 455.24 414.606 457.145 417.638 456.938C418.147 456.901 418.732 456.843 419.307 456.763C424.847 455.983 431.664 453.403 431.664 453.403C431.31 453.17 430.987 452.89 430.702 452.57C430.43 452.295 430.214 451.965 430.068 451.6C429.922 451.235 429.849 450.842 429.853 450.447C429.934 448.902 427.172 441.572 426.48 439.762L426.322 439.359C426.322 439.359 432.62 432.485 431.572 426.402C431.572 426.402 424.603 422.156 426.897 419.82C429.191 417.485 433.292 410.797 433.292 410.797C433.292 410.797 433.48 385.771 433.292 382.039C433.095 379.444 433.213 376.833 433.643 374.268C433.719 373.886 433.811 373.509 433.907 373.132C437.083 373.633 440.29 373.886 443.502 373.892C444.675 373.892 445.862 373.867 447.063 373.817C447.063 374.171 447.078 374.553 447.109 374.964C447.373 381.163 447.867 392.039 448.269 396.078C448.838 401.864 451.987 417.474 451.987 417.474C451.987 417.474 445.979 421.492 453.035 431.413C453.035 431.413 453.035 435.001 452.567 435.526C452.067 437.229 451.665 438.96 451.362 440.712C451.067 442.575 450.945 444.47 451.423 445.447C452.567 447.793 459.435 447.602 459.435 447.602C459.491 447.588 459.547 447.58 459.603 447.575C460.9 447.432 462.21 447.561 463.458 447.952C464.707 448.344 465.868 448.992 466.873 449.858C469.483 452.045 479.383 451.089 484.75 450.389C486.851 450.107 488.255 449.858 488.255 449.858C488.322 449.609 488.347 449.351 488.326 449.093C488.27 447.719 487.238 444.704 480.237 442.013C480.237 442.013 473.654 437.395 473.746 433.372H473.598H472.84C473.319 433.356 473.654 433.356 473.654 433.356C473.654 433.356 471.075 423.541 472.128 422.74C473.181 421.938 470.027 411.063 470.027 411.063C470.027 411.063 468.221 392.803 468.119 391.53C468.126 390.432 468.287 389.341 468.598 388.292L468.119 378.276C468.119 378.276 468.028 374.948 468.119 373.865C468.109 372.925 468.038 371.987 467.906 371.057C467.86 370.686 467.814 370.298 467.763 369.916C470.231 369.263 471.833 368.663 471.833 368.663L471.548 333.817C473.644 329.571 474.031 320.25 474.021 313.647C474.021 309.401 473.838 306.259 473.838 306.259L476.702 301.381C476.702 301.381 477.363 295.542 476.315 294.263C475.852 293.684 476.061 293.085 476.442 292.591C476.643 292.419 476.856 292.263 477.078 292.124C477.053 292.087 477.031 292.048 477.012 292.007C477.212 291.833 477.425 291.675 477.648 291.535C477.648 291.535 476.63 289.889 477.541 289.194C478.396 289.799 479.159 290.282 479.739 290.627C479.698 291.014 479.657 291.237 479.657 291.237L479.902 290.707C480.461 291.036 480.802 291.237 480.802 291.237C480.802 291.237 485.289 281.911 485.192 280.542C485.096 279.173 488.245 273.376 488.245 273.376C488.245 273.376 488.626 270.33 490.346 269.056C492.065 267.782 491.679 258.552 491.679 258.552C491.679 258.552 492.157 253.743 493.302 251.784C494.446 249.825 492.279 247.161 492.279 247.161ZM406.426 243.069L406.512 245.293C406.003 244.438 405.637 243.828 405.637 243.828L406.426 243.069Z" fill="url(#paint1_linear_156_797)"/>
<path d="M481.067 287.203L479.968 292.087C479.968 292.087 471.167 287.389 469.585 281.444C468.002 275.5 472.235 273.233 472.235 273.233L480.441 276.853L481.067 287.203Z" fill="white"/>
<path opacity="0.1" d="M481.067 287.203L479.968 292.087C479.968 292.087 471.167 287.389 469.585 281.444C468.002 275.5 472.235 273.233 472.235 273.233L480.441 276.853L481.067 287.203Z" fill="black"/>
<path d="M431.674 453.398C431.674 453.398 423.534 456.519 417.938 456.912C414.967 457.119 413.405 455.219 412.602 453.387C412.165 452.378 411.88 451.303 411.757 450.203L412.495 441.79L412.881 437.315L424.77 434.088L426.454 439.465L426.612 439.868C427.284 441.668 430 448.961 429.919 450.484C429.912 450.878 429.982 451.269 430.125 451.634C430.267 451.999 430.479 452.33 430.748 452.607C431.023 452.911 431.334 453.176 431.674 453.398V453.398Z" fill="white"/>
<path d="M487.248 449.12C487.269 449.377 487.245 449.636 487.176 449.884C487.176 449.884 469.768 452.91 466.207 449.884C465.206 449 464.039 448.344 462.781 447.958C461.523 447.571 460.202 447.463 458.901 447.639C458.901 447.639 452.166 447.83 451.041 445.516C450.573 444.545 450.695 442.66 450.985 440.808C451.282 439.065 451.676 437.343 452.166 435.649L452.435 435.426L454.038 434.083L472.8 433.504H472.942C472.851 437.506 479.306 442.098 479.306 442.098C486.179 444.752 487.192 447.75 487.248 449.12Z" fill="white"/>
<path opacity="0.1" d="M487.253 449.12C487.271 449.377 487.245 449.636 487.177 449.884C487.177 449.884 469.768 452.91 466.212 449.884C465.21 449 464.043 448.343 462.784 447.957C461.525 447.57 460.203 447.462 458.901 447.639C458.901 447.639 452.161 447.83 451.036 445.516C450.573 444.545 450.69 442.66 450.98 440.803C453.575 441.073 457.67 441.747 459.278 443.361C461.71 445.803 465.83 448.244 468.354 448.441C470.348 448.568 482.206 448.961 487.253 449.12Z" fill="black"/>
<path opacity="0.1" d="M431.674 453.398C431.674 453.398 423.534 456.519 417.938 456.912C414.967 457.119 413.405 455.219 412.602 453.387C414.677 454.115 417.552 454.874 419.062 454.178C420.853 453.345 427.202 452.814 430.763 452.586C431.032 452.897 431.338 453.17 431.674 453.398V453.398Z" fill="black"/>
<path d="M443.751 201.864C437.036 199.141 428.398 190.144 430.555 185.94C431.031 184.878 431.316 183.734 431.394 182.564C431.533 180.976 431.553 179.379 431.455 177.787C431.304 175.179 431.003 172.582 430.555 170.011C430.555 170.011 451.52 170.505 450.299 173.726C449.942 174.677 449.881 176.317 449.983 178.148C450.085 179.979 450.334 182.065 450.599 183.822C450.96 186.227 451.331 188.068 451.331 188.068C451.331 188.068 450.044 189.942 449.296 190.043C448.549 190.144 453.387 205.765 443.751 201.864Z" fill="#FBBEBE"/>
<path opacity="0.1" d="M426.592 439.842L426.434 440.022C420.166 432.113 412.586 441.976 412.586 441.976L412.474 441.763L412.861 437.289L424.75 434.061L426.434 439.438L426.592 439.842Z" fill="black"/>
<path opacity="0.1" d="M472.952 434.062C472.952 434.062 468.374 433.966 465.932 436.217C463.49 438.467 451.687 436.7 452.196 436.217C452.345 435.971 452.435 435.693 452.461 435.404L454.063 434.062L472.825 433.483C472.896 433.854 472.952 434.062 472.952 434.062Z" fill="black"/>
<path d="M434.391 371.954C434.05 372.834 433.791 373.746 433.617 374.677C433.193 377.228 433.075 379.824 433.266 382.405C433.455 386.121 433.266 411.02 433.266 411.02C433.266 411.02 429.242 417.66 426.994 420.001C424.745 422.342 431.572 426.546 431.572 426.546C432.59 432.602 426.424 439.438 426.424 439.438C420.156 431.53 412.576 441.386 412.576 441.386C412.576 441.386 408.455 433.955 407.428 431.301C406.4 428.647 411.452 426.816 413.227 425.733C415.003 424.651 413.136 418.302 413.136 418.302C413.136 418.302 411.64 412.734 409.86 407.655C408.079 402.575 411.823 377.294 411.823 377.294C411.823 377.294 412.017 372.798 412.48 371.232C412.711 370.102 412.757 368.939 412.617 367.793C412.586 367.405 412.551 367.087 412.525 366.864C412.5 366.641 412.48 366.545 412.48 366.545L412.551 366.418L415.094 361.471C415.094 361.471 435.612 368.838 434.391 371.954Z" fill="#AADBFF"/>
<path d="M472.952 433.478C472.952 433.478 468.374 433.377 465.932 435.601C463.49 437.825 451.687 436.089 452.196 435.601C452.705 435.112 452.659 431.503 452.659 431.503C445.735 421.636 451.642 417.634 451.642 417.634C451.642 417.634 448.554 402.108 447.994 396.349C447.602 392.331 447.119 381.487 446.859 375.346C446.748 372.692 446.681 370.861 446.681 370.861L452.288 369.698L453.015 369.55L466.659 366.689C466.659 366.689 467.036 369.343 467.29 371.514C467.419 372.44 467.488 373.375 467.499 374.311C467.412 375.372 467.499 378.7 467.499 378.7L467.967 388.658C467.665 389.703 467.507 390.788 467.499 391.88C467.595 393.154 469.371 411.312 469.371 411.312C469.371 411.312 472.459 422.151 471.406 422.931C470.353 423.711 472.952 433.478 472.952 433.478Z" fill="#AADBFF"/>
<path opacity="0.1" d="M450.299 173.742C449.942 174.693 449.881 176.333 449.983 178.164C447.175 179.928 443.947 180.83 440.669 180.766C437.392 180.703 434.198 179.675 431.455 177.803C431.304 175.195 431.003 172.598 430.555 170.027C430.555 170.027 451.52 170.521 450.299 173.742Z" fill="black"/>
<path d="M458.393 162.023C458.448 166.839 456.667 171.48 453.443 174.926C450.218 178.372 445.813 180.341 441.197 180.398C436.582 180.456 432.133 178.598 428.83 175.234C425.527 171.869 423.641 167.274 423.585 162.458C423.585 162.309 423.585 162.171 423.585 162.023C423.585 157.205 425.419 152.585 428.684 149.179C431.949 145.773 436.377 143.859 440.994 143.859C445.611 143.859 450.039 145.773 453.304 149.179C456.569 152.585 458.403 157.205 458.403 162.023H458.393Z" fill="#FBBEBE"/>
<path opacity="0.1" d="M443.751 201.864C437.036 199.141 428.398 190.144 430.555 185.94C431.031 184.878 431.316 183.734 431.394 182.564L440.587 190.452L446.275 195.319L450.599 183.838C450.96 186.242 451.331 188.084 451.331 188.084C451.331 188.084 450.044 189.958 449.296 190.059C448.549 190.16 453.387 205.765 443.751 201.864Z" fill="black"/>
<path d="M467.524 236.72L459.847 371.275L449.836 371.959L423.906 293.939L428.159 201.312L429.059 181.741L440.587 191.619L446.274 196.487L450.726 184.666L459.003 192.193L467.524 236.72Z" fill="#AADBFF"/>
<path opacity="0.1" d="M434.39 371.954C434.05 372.834 433.791 373.746 433.617 374.677C426.325 373.506 419.243 371.199 412.607 367.835L412.469 367.761L412.515 366.906V366.46L415.059 361.514C415.059 361.514 435.611 368.838 434.39 371.954Z" fill="black"/>
<path opacity="0.1" d="M452.456 374.698C450.594 375.031 448.715 375.256 446.829 375.372C446.717 372.719 446.651 370.887 446.651 370.887L452.288 369.698L452.456 374.698Z" fill="black"/>
<path opacity="0.1" d="M467.311 371.514C463.694 372.496 458.103 373.6 453.107 372.91L453.036 369.55L466.68 366.689C466.68 366.689 467.041 369.321 467.311 371.514Z" fill="black"/>
<path opacity="0.1" d="M453.015 373.525C432.157 377.241 413.054 366.588 413.054 366.588L413.238 362.979C413.238 362.979 413.711 322.06 412.398 318.923C411.086 315.786 410.063 299.9 410.806 297.474C411.549 295.048 408.094 258.424 408.094 258.424L407.535 243.562L387.038 234.873L396.195 214.953C397.432 212.16 398.495 209.288 399.38 206.354C400.972 201.179 408.364 196.099 408.364 196.099C408.364 196.099 415.944 191.025 418.94 191.216C421.937 191.407 425.864 186.726 425.864 186.726C428.764 179.013 431.389 182.479 431.389 182.479C431.389 182.851 431.389 182.479 431.247 183.62C430.229 192.086 447.699 218.838 447.948 219.316L449.632 261.598L451.316 315.107L453.015 373.525Z" fill="black"/>
<path d="M452.456 373.525C431.598 377.241 412.49 366.588 412.49 366.588L412.678 362.979C412.678 362.979 413.146 322.06 411.833 318.923C410.521 315.786 409.498 299.884 410.246 297.437C410.994 294.99 407.519 258.403 407.519 258.403L406.955 243.541L386.463 234.852L395.62 214.932C396.854 212.14 397.917 209.27 398.805 206.338C400.397 201.179 407.814 196.094 407.814 196.094C407.814 196.094 415.394 191.02 418.386 191.211C421.377 191.402 425.325 186.726 425.325 186.726C428.23 179.013 431.43 182.479 431.43 182.479C431.43 182.851 431.124 183.01 431.287 183.62C433.526 191.832 447.18 218.838 447.429 219.316L449.113 261.598L450.761 315.133L452.456 373.525Z" fill="white"/>
<path opacity="0.1" d="M446.834 220.51C444.591 219.533 432.707 205.377 432.707 205.377V202.155C432.274 201.094 429.7 201.741 427.619 202.485L428.515 182.914L429.532 183.796C431.755 192.001 446.59 220.038 446.834 220.51Z" fill="black"/>
<path d="M447.399 219.342C445.15 218.36 433.266 204.21 433.266 204.21V200.982C432.834 199.921 430.265 200.568 428.179 201.312L429.059 181.763L430.077 182.638C432.32 190.834 447.15 218.865 447.399 219.342Z" fill="white"/>
<path opacity="0.1" d="M413.054 289.937C413.334 289.937 427.558 288.376 427.558 288.376C427.558 288.376 436.171 306.052 435.606 310.346C435.042 314.64 434.019 318.451 430.555 317.777C427.09 317.103 411.91 318.308 411.91 318.308L413.054 289.937Z" fill="black"/>
<path d="M412.49 288.764C412.775 288.764 426.999 287.203 426.999 287.203C426.999 287.203 435.606 304.905 435.047 309.152C434.487 313.398 433.454 317.257 429.995 316.583C426.536 315.908 411.345 317.113 411.345 317.113L412.49 288.764Z" fill="white"/>
<path d="M423.209 280.489C423.209 280.489 436.263 287.814 436.543 290.043C436.822 292.272 429.898 289.067 428.403 288.674C427.418 288.43 426.416 288.266 425.406 288.185L415.43 288.467L423.209 280.489Z" fill="#FBBEBE"/>
<path opacity="0.1" d="M443.187 221.423C443.945 221.423 444.56 220.781 444.56 219.99C444.56 219.198 443.945 218.557 443.187 218.557C442.428 218.557 441.813 219.198 441.813 219.99C441.813 220.781 442.428 221.423 443.187 221.423Z" fill="black"/>
<path d="M443.187 220.839C443.945 220.839 444.56 220.198 444.56 219.406C444.56 218.615 443.945 217.973 443.187 217.973C442.428 217.973 441.813 218.615 441.813 219.406C441.813 220.198 442.428 220.839 443.187 220.839Z" fill="#3F3D56"/>
<path opacity="0.1" d="M445.715 283.461C446.473 283.461 447.088 282.82 447.088 282.028C447.088 281.237 446.473 280.595 445.715 280.595C444.956 280.595 444.341 281.237 444.341 282.028C444.341 282.82 444.956 283.461 445.715 283.461Z" fill="black"/>
<path d="M445.715 282.872C446.473 282.872 447.088 282.231 447.088 281.439C447.088 280.648 446.473 280.006 445.715 280.006C444.956 280.006 444.341 280.648 444.341 281.439C444.341 282.231 444.956 282.872 445.715 282.872Z" fill="#3F3D56"/>
<path opacity="0.1" d="M444.56 252.442C445.319 252.442 445.934 251.801 445.934 251.009C445.934 250.218 445.319 249.576 444.56 249.576C443.802 249.576 443.187 250.218 443.187 251.009C443.187 251.801 443.802 252.442 444.56 252.442Z" fill="black"/>
<path d="M444.56 251.858C445.319 251.858 445.934 251.217 445.934 250.425C445.934 249.634 445.319 248.992 444.56 248.992C443.802 248.992 443.187 249.634 443.187 250.425C443.187 251.217 443.802 251.858 444.56 251.858Z" fill="#3F3D56"/>
<path d="M476.224 287.888C476.224 287.888 477.16 289.353 476.224 290.011C475.287 290.669 476.315 292.357 476.315 292.357C476.315 292.357 473.98 293.78 475.008 295.07C476.035 296.359 475.384 302.15 475.384 302.15L472.576 307.028C472.576 307.028 472.744 310.155 472.754 314.38C472.754 320.972 472.383 330.24 470.327 334.465L470.602 369.13C470.602 369.13 460.768 372.883 452.537 371.736L451.316 316.11C451.316 316.11 453.097 284.565 453.753 278.514C454.137 275.373 454.293 272.206 454.221 269.04C454.221 269.04 453.941 259.571 453 255.181C453 255.181 451.983 236.136 451.881 230.866C451.835 228.344 451.962 220.988 452.105 213.992C452.262 206.343 452.44 199.13 452.44 199.13L450.583 183.796C450.583 183.796 452.44 183.604 453 184.379C453.251 184.624 453.523 184.842 453.814 185.032C457.024 187.293 468.348 194.247 468.348 194.247C468.348 194.247 474.616 196.848 476.117 200.574C477.617 204.3 478.66 206.943 479.388 208.005C480.115 209.066 480.512 214.056 480.512 214.056C480.512 214.056 482.669 223.238 484.353 224.793C486.037 226.349 487.248 236.221 487.248 236.221L472.367 248.429C472.367 248.429 471.06 268.737 470.78 269.523C470.5 270.308 476.224 287.888 476.224 287.888Z" fill="white"/>
<path d="M476.788 287.888C476.788 287.888 477.719 289.353 476.788 290.011C475.857 290.669 476.875 292.357 476.875 292.357C476.875 292.357 474.54 293.78 475.567 295.07C476.595 296.36 475.944 302.15 475.944 302.15L473.146 307.028C473.146 307.028 473.314 310.155 473.329 314.38C473.329 320.972 472.958 330.24 470.902 334.465L471.182 369.13C471.182 369.13 461.348 372.883 453.117 371.737L451.901 316.11C451.901 316.11 453.677 284.565 454.338 278.514C454.723 275.373 454.877 272.206 454.801 269.04C454.801 269.04 454.521 259.571 453.585 255.181C453.585 255.181 452.568 236.136 452.461 230.866C452.415 228.345 452.542 220.988 452.685 213.992C452.842 206.343 453.02 199.13 453.02 199.13L450.568 183.589C450.568 183.589 453.02 183.589 453.585 184.379C453.833 184.627 454.106 184.845 454.399 185.032V185.032C457.604 187.293 468.928 194.247 468.928 194.247C468.928 194.247 475.181 196.848 476.707 200.574C478.233 204.3 479.251 206.943 479.978 208.005C480.706 209.066 481.102 214.056 481.102 214.056C481.102 214.056 483.259 223.238 484.943 224.794C486.627 226.349 487.843 236.221 487.843 236.221L472.963 248.429C472.963 248.429 471.655 268.737 471.37 269.523C471.086 270.309 476.788 287.888 476.788 287.888Z" fill="white"/>
<path opacity="0.1" d="M458.967 203.636L460.316 207.723L453.239 215.154C453.397 207.506 453.575 200.292 453.575 200.292L451.123 184.756C451.123 184.756 453.575 184.756 454.14 185.547C454.388 185.794 454.661 186.013 454.954 186.2V186.2L460.967 204.295L458.967 203.636Z" fill="black"/>
<path d="M458.392 202.463L459.741 206.545L452.669 213.976C452.822 206.327 453.005 199.114 453.005 199.114L450.548 183.573C450.548 183.573 453.005 183.573 453.565 184.363C453.814 184.609 454.087 184.828 454.379 185.016V185.016L460.427 203.127L458.392 202.463Z" fill="white"/>
<path opacity="0.1" d="M458.393 162.023C458.395 163.935 458.106 165.836 457.538 167.654C457.442 167.671 457.344 167.667 457.25 167.644C457.155 167.62 457.066 167.577 456.989 167.516C456.851 162.739 454.603 158.249 451.83 154.432C451.05 153.281 450.107 152.261 449.032 151.407C447.944 150.555 446.591 150.156 445.237 150.287C443.711 150.505 442.362 151.587 440.821 151.725C438.786 151.901 436.965 150.43 434.945 150.361C434.124 150.368 433.314 150.559 432.569 150.919C431.824 151.28 431.161 151.803 430.626 152.453C429.564 153.759 428.776 155.284 428.311 156.927C427.511 159.421 427.076 162.026 427.019 164.655C426.994 166.142 426.856 168.005 425.534 168.546C425.634 167.454 425.515 166.352 425.185 165.31C424.855 164.268 424.32 163.31 423.616 162.495L423.585 162.458C423.585 162.309 423.585 162.171 423.585 162.023C423.585 157.205 425.419 152.585 428.684 149.179C431.949 145.773 436.377 143.859 440.994 143.859C445.611 143.859 450.039 145.773 453.304 149.179C456.569 152.585 458.403 157.205 458.403 162.023H458.393Z" fill="black"/>
<path d="M448.218 133.185C445.574 131.888 442.568 131.642 439.763 132.495C438.354 132.93 437.026 133.636 435.596 133.992C432.544 134.761 428.983 133.928 426.363 135.791C424.908 136.853 424.033 138.53 423.219 140.165L421.184 144.204C420.075 146.418 418.956 148.668 418.493 151.104C418.03 153.541 418.31 156.269 419.79 158.233C420.863 159.655 422.461 160.552 423.631 161.895C424.334 162.714 424.867 163.676 425.196 164.72C425.525 165.764 425.644 166.868 425.544 167.962C426.867 167.431 426.999 165.558 427.029 164.072C427.086 161.442 427.522 158.837 428.322 156.343C428.786 154.7 429.574 153.176 430.636 151.869C431.171 151.218 431.834 150.695 432.578 150.333C433.323 149.972 434.134 149.78 434.955 149.772C436.99 149.846 438.817 151.317 440.831 151.136C442.357 151.004 443.711 149.921 445.247 149.703C446.602 149.569 447.955 149.969 449.042 150.823C450.118 151.675 451.06 152.695 451.835 153.849C454.613 157.67 456.866 162.139 456.999 166.932C457.574 167.368 458.403 166.794 458.688 166.115C458.973 165.436 458.983 164.639 459.344 163.992C459.761 163.243 460.56 162.84 461.186 162.277C462.773 160.85 463.17 158.445 463.109 156.264C463.048 154.082 462.641 151.869 463.037 149.724C463.276 148.413 463.816 147.177 464.111 145.876C464.406 144.576 464.441 143.116 463.744 141.996C462.727 140.356 460.585 140.027 458.718 139.873C456.597 139.682 454.699 139.926 453.346 138.063C452.709 137.092 451.994 136.179 451.209 135.335C450.93 135.053 448.218 133.302 448.218 133.185Z" fill="#512E4E"/>
<path opacity="0.1" d="M392.909 245.117L387.597 234.868L385.914 250.685C385.914 250.685 386.85 257.713 386.661 258.79C386.473 259.868 390.497 269.528 390.497 269.528C390.497 269.528 403.79 294.236 409.219 295.505L427.533 281.832L422.669 275.388C422.669 275.388 420.986 274.703 420.563 275.388C420.563 275.388 411.528 259.178 410.597 258.01C409.666 256.842 409.844 254.491 409.844 254.491C409.844 254.491 408.44 252.931 408.908 251.466C409.376 250.001 406.222 244.926 406.222 244.926L409.122 242.097L392.909 245.117Z" fill="black"/>
<path d="M387.877 233.695L386.473 234.868L384.789 250.685C384.789 250.685 385.725 257.713 385.537 258.79C385.349 259.868 389.378 269.528 389.378 269.528C389.378 269.528 402.666 294.236 408.094 295.505L426.439 281.832L421.571 275.388C421.571 275.388 419.887 274.703 419.464 275.388C419.464 275.388 410.434 259.178 409.498 258.01C408.562 256.842 408.751 254.491 408.751 254.491C408.751 254.491 407.346 252.931 407.815 251.466C408.283 250.001 405.098 244.926 405.098 244.926L407.998 242.097L387.877 233.695Z" fill="white"/>
<path opacity="0.1" d="M475.008 295.68C476.025 296.97 475.384 302.766 475.384 302.766L472.576 307.612C472.576 307.612 472.744 310.744 472.754 314.969L468.033 316.508C467.606 316.647 467.153 316.678 466.712 316.597C466.271 316.516 465.855 316.327 465.498 316.044C465.142 315.761 464.856 315.394 464.663 314.973C464.47 314.551 464.377 314.088 464.39 313.621L465.21 286.232L476.224 290.622C475.288 291.301 476.315 292.968 476.315 292.968C476.315 292.968 473.98 294.39 475.008 295.68Z" fill="black"/>
<path d="M475.567 295.096C476.585 296.381 475.944 302.177 475.944 302.177L473.146 307.028C473.146 307.028 473.314 310.155 473.329 314.38L468.521 315.946C468.104 316.082 467.661 316.112 467.23 316.034C466.799 315.956 466.392 315.771 466.044 315.495C465.695 315.219 465.415 314.86 465.227 314.448C465.038 314.036 464.947 313.583 464.96 313.127L465.779 285.643L476.788 290.043C475.847 290.723 476.875 292.389 476.875 292.389C476.875 292.389 474.54 293.806 475.567 295.096Z" fill="white"/>
<path d="M479.22 282.028C479.22 282.028 478.472 287.012 476.6 287.304C474.728 287.596 473.888 295.367 472.021 295.096C470.154 294.826 471.391 287.867 471.457 286.519C471.523 285.171 469.422 279.587 470.989 278.318C472.556 277.05 477.541 278.318 477.541 278.318L479.22 282.028Z" fill="#FBBEBE"/>
<path opacity="0.1" d="M483.178 243.652L486.703 236.221C486.703 236.221 488.113 241.885 488.113 244.91C488.113 247.936 490.076 248.233 490.076 248.233C490.076 248.233 492.228 250.887 491.094 252.824C489.959 254.762 489.506 259.56 489.506 259.56C489.506 259.56 489.878 268.737 488.194 270.006C486.51 271.274 486.134 274.305 486.134 274.305C486.134 274.305 483.046 280.064 483.142 281.434C483.239 282.803 478.838 292.076 478.838 292.076C478.838 292.076 480.99 280.553 468.45 275.574C468.45 275.574 468.353 271.667 469.289 270.595C470.226 269.523 471.686 269.003 470.77 263.61C469.854 258.217 470.505 251.715 470.505 250.415C470.505 249.114 473.314 241.009 473.314 241.009L483.178 243.652Z" fill="black"/>
<path d="M484.745 235.16L487.828 236.221C487.828 236.221 489.237 241.885 489.237 244.91C489.237 247.936 491.201 248.233 491.201 248.233C491.201 248.233 493.352 250.887 492.218 252.824C491.084 254.762 490.626 259.56 490.626 259.56C490.626 259.56 491.002 268.737 489.318 270.006C487.634 271.275 487.283 274.305 487.283 274.305C487.283 274.305 484.195 280.064 484.292 281.434C484.389 282.803 479.983 292.076 479.983 292.076C479.983 292.076 482.135 280.553 469.595 275.574C469.595 275.574 469.503 271.667 470.439 270.595C471.375 269.523 472.835 269.003 471.92 263.61C471.004 258.217 471.655 251.715 471.655 250.415C471.655 249.114 474.463 241.009 474.463 241.009L484.745 235.16Z" fill="white"/>
<path opacity="0.1" d="M416.636 427.766C416.636 427.766 421.55 424.545 424.775 426.885C428.001 429.226 416.636 427.766 416.636 427.766Z" fill="black"/>
<path opacity="0.1" d="M454.831 417.803C454.831 417.803 459.181 417.22 462.834 421.323C466.486 425.426 454.831 417.803 454.831 417.803Z" fill="black"/>
<g opacity="0.1">
<path d="M461.185 161.11C460.56 161.678 459.756 162.076 459.339 162.824C458.982 163.466 458.972 164.263 458.687 164.947C458.403 165.632 457.573 166.2 456.993 165.765C456.861 160.988 454.607 156.502 451.835 152.681C451.06 151.529 450.117 150.51 449.042 149.661C447.954 148.805 446.598 148.403 445.242 148.535C443.715 148.753 442.372 149.836 440.831 149.974C438.796 150.149 436.97 148.679 434.95 148.61C434.129 148.616 433.32 148.806 432.575 149.167C431.831 149.528 431.17 150.051 430.636 150.701C429.574 152.008 428.785 153.532 428.321 155.175C427.522 157.669 427.086 160.275 427.029 162.904C426.998 164.385 426.866 166.232 425.554 166.784C425.584 167.178 425.584 167.574 425.554 167.967C426.882 167.437 427.014 165.563 427.044 164.077C427.101 161.448 427.537 158.843 428.336 156.349C428.801 154.705 429.589 153.181 430.651 151.874C431.186 151.224 431.847 150.701 432.591 150.339C433.335 149.977 434.144 149.786 434.965 149.777C437 149.852 438.832 151.322 440.846 151.142C442.372 151.009 443.726 149.926 445.257 149.708C446.613 149.575 447.968 149.974 449.057 150.828C450.133 151.68 451.075 152.701 451.85 153.854C454.623 157.676 456.876 162.145 457.009 166.938C457.589 167.373 458.418 166.8 458.703 166.12C458.988 165.441 458.998 164.645 459.354 163.997C459.771 163.249 460.575 162.845 461.201 162.283C462.788 160.855 463.185 158.45 463.124 156.269C463.124 156.2 463.124 156.136 463.124 156.067C463.022 157.967 462.538 159.894 461.185 161.11Z" fill="black"/>
<path d="M423.626 160.738C422.461 159.395 420.863 158.493 419.79 157.07C418.883 155.815 418.367 154.3 418.31 152.729C418.15 154.693 418.676 156.651 419.79 158.243C420.863 159.666 422.461 160.563 423.626 161.906C424.751 163.219 425.427 164.884 425.549 166.641C425.625 165.572 425.494 164.499 425.164 163.485C424.834 162.471 424.31 161.536 423.626 160.738Z" fill="black"/>
<path d="M464.111 144.708C463.811 146.009 463.276 147.246 463.032 148.557C462.886 149.443 462.833 150.344 462.874 151.242C462.891 150.735 462.944 150.229 463.032 149.73C463.276 148.419 463.811 147.182 464.111 145.881C464.283 145.164 464.34 144.421 464.279 143.684C464.246 144.029 464.19 144.371 464.111 144.708V144.708Z" fill="black"/>
</g>
<path opacity="0.1" d="M67.5239 445.266C94.9011 445.266 117.095 441.547 117.095 436.96C117.095 432.372 94.9011 428.653 67.5239 428.653C40.1467 428.653 17.9531 432.372 17.9531 436.96C17.9531 441.547 40.1467 445.266 67.5239 445.266Z" fill="#04AD48"/>
<path d="M69.1214 277.824H65.9316V352.756H69.1214V277.824Z" fill="#535461"/>
<path d="M89.1706 352.533L88.9671 355.908L88.6873 360.686L88.5703 362.671L88.2854 367.448L88.1633 369.433L87.8835 374.21L84.6632 428.387C84.5259 430.718 83.5415 432.907 81.9108 434.507C80.2801 436.107 78.1259 436.997 75.8876 436.997H59.1656C56.9211 436.998 54.7613 436.103 53.1294 434.495C51.4975 432.887 50.5173 430.688 50.39 428.35L47.1697 374.173L46.8899 369.396L46.7729 367.411L46.4829 362.634L46.3659 360.648L46.0861 355.871L45.8826 352.496C45.8474 351.848 45.9388 351.201 46.1511 350.592C46.3635 349.983 46.6924 349.425 47.1179 348.953C47.5433 348.481 48.0564 348.104 48.6259 347.845C49.1955 347.586 49.8095 347.451 50.4307 347.448H84.6276C85.2515 347.451 85.8681 347.588 86.4396 347.85C87.011 348.111 87.5252 348.491 87.9507 348.967C88.3761 349.444 88.7038 350.006 88.9135 350.619C89.1233 351.232 89.2108 351.883 89.1706 352.533Z" fill="#3F3D56"/>
<path d="M88.9669 355.903L88.682 360.67H46.3657L46.0808 355.903H88.9669Z" fill="#9D9CB5"/>
<path d="M88.5652 362.655L88.2854 367.421H46.7678L46.4829 362.655H88.5652Z" fill="#9D9CB5"/>
<path d="M88.1632 369.412L87.8834 374.173H47.1697L46.8848 369.412H88.1632Z" fill="#9D9CB5"/>
<path d="M41.2327 305.914C59.8116 319.937 67.5494 341.869 67.5494 341.869C67.5494 341.869 45.1652 341.068 26.5812 327.044C7.99725 313.021 0.249268 291.105 0.249268 291.105C0.249268 291.105 22.6335 291.89 41.2327 305.914Z" fill="#04AD48"/>
<path d="M0.249268 291.105C0.249268 291.105 23.483 304.56 30.936 315.701C38.3889 326.843 67.529 341.88 67.529 341.88" stroke="#535461" stroke-width="2" stroke-miterlimit="10"/>
<path d="M53.2032 277.665C63.3168 285.293 67.5291 297.23 67.5291 297.23C67.5291 297.23 55.3195 296.795 45.2314 289.167C35.1433 281.54 30.9055 269.597 30.9055 269.597C30.9055 269.597 43.0947 270.032 53.2032 277.665Z" fill="#04AD48"/>
<path d="M30.9055 269.597C30.9055 269.597 43.5526 276.922 47.6123 282.984C51.6719 289.045 67.5291 297.23 67.5291 297.23" stroke="#535461" stroke-width="2" stroke-miterlimit="10"/>
<path d="M82.2212 296.625C70.6068 309.942 68.1497 327.347 68.1497 327.347C68.1497 327.347 84.5257 323.154 96.1299 309.831C107.734 296.508 110.201 279.109 110.201 279.109C110.201 279.109 93.8355 283.307 82.2212 296.625Z" fill="#04AD48"/>
<path d="M110.212 279.114C110.212 279.114 95.0819 292.766 91.2359 302.172C87.3899 311.577 68.1497 327.347 68.1497 327.347" stroke="#535461" stroke-width="2" stroke-miterlimit="10"/>
<path d="M180.696 80.7275C185.752 81.7195 188.28 84.3435 188.28 88.5995C188.28 91.7035 187.16 94.1195 184.92 95.8475C182.68 97.5435 179.768 98.3915 176.184 98.3915H160.584V96.2795C160.584 95.7995 160.824 95.5115 161.304 95.4155L164.04 94.8395V67.5755L161.304 66.9995C160.824 66.9035 160.584 66.6155 160.584 66.1355V64.0235H175.032C178.776 64.0235 181.72 64.7275 183.864 66.1355C186.04 67.5435 187.128 69.7195 187.128 72.6635C187.128 74.7435 186.6 76.4395 185.544 77.7515C184.488 79.0635 182.872 80.0555 180.696 80.7275ZM174.84 79.3835C177.272 79.3835 179.16 78.9195 180.504 77.9915C181.848 77.0315 182.52 75.5755 182.52 73.6235C182.52 71.5435 181.88 70.0555 180.6 69.1595C179.352 68.2315 177.496 67.7675 175.032 67.7675H168.696V79.3835H174.84ZM183.672 88.5035C183.672 86.5195 183 85.0635 181.656 84.1355C180.344 83.2075 178.504 82.7435 176.136 82.7435H168.696V94.6955H176.184C178.712 94.7275 180.584 94.2155 181.8 93.1595C183.048 92.0715 183.672 90.5195 183.672 88.5035ZM201.25 73.7195C202.658 73.7195 203.986 73.9595 205.234 74.4395C206.514 74.9195 207.57 75.6075 208.402 76.5035C209.362 77.5275 210.066 78.6635 210.514 79.9115C211.026 81.3515 211.282 82.8875 211.282 84.5195C211.282 85.2555 211.218 85.7035 211.09 85.8635C210.93 86.0875 210.642 86.1995 210.226 86.1995H194.098C194.098 87.7355 194.29 89.0795 194.674 90.2315C194.994 91.2235 195.538 92.1515 196.306 93.0155C197.01 93.8155 197.81 94.3915 198.706 94.7435C199.666 95.1275 200.69 95.3195 201.778 95.3195C202.93 95.3195 203.858 95.2075 204.562 94.9835C205.234 94.7595 205.906 94.4875 206.578 94.1675C207.282 93.8155 207.762 93.5595 208.018 93.3995C208.434 93.1435 208.754 93.0155 208.978 93.0155C209.33 93.0155 209.602 93.1595 209.794 93.4475L210.994 95.0315C210.546 95.6075 209.906 96.1515 209.074 96.6635C208.114 97.2715 207.33 97.6715 206.722 97.8635C205.762 98.1835 204.898 98.4075 204.13 98.5355C203.17 98.6955 202.29 98.7755 201.49 98.7755C199.826 98.7755 198.274 98.4875 196.834 97.9115C195.458 97.3675 194.226 96.5195 193.138 95.3675C192.114 94.3115 191.314 92.9515 190.738 91.2875C190.162 89.6555 189.874 87.7995 189.874 85.7195C189.874 84.0555 190.146 82.4875 190.69 81.0155C191.234 79.5115 191.986 78.2315 192.946 77.1755C193.938 76.0875 195.138 75.2395 196.546 74.6315C197.954 74.0235 199.522 73.7195 201.25 73.7195ZM201.346 76.8395C199.266 76.8395 197.65 77.4315 196.498 78.6155C195.314 79.8635 194.578 81.5275 194.29 83.6075H207.49C207.49 82.6155 207.346 81.7195 207.058 80.9195C206.706 79.9275 206.322 79.2075 205.906 78.7595C205.362 78.1835 204.706 77.7195 203.938 77.3675C203.202 77.0475 202.322 76.8875 201.298 76.8875L201.346 76.8395ZM221.291 77.5115C223.339 74.9835 225.627 73.7195 228.155 73.7195C229.819 73.7195 231.163 74.1835 232.187 75.1115C233.179 76.0075 233.915 77.2395 234.395 78.8075C235.099 77.0795 236.155 75.7995 237.563 74.9675C239.035 74.1355 240.443 73.7195 241.787 73.7195C243.195 73.7195 244.443 73.9275 245.531 74.3435C246.555 74.7275 247.419 75.3195 248.123 76.1195C249.531 77.7195 250.235 79.9915 250.235 82.9355V94.9355C251.835 95.2235 252.763 95.4155 253.019 95.5115C253.499 95.6075 253.739 95.8955 253.739 96.3755V98.4875H246.011V82.9835C246.011 81.0315 245.595 79.5915 244.763 78.6635C243.867 77.6715 242.651 77.1755 241.115 77.1755C239.643 77.1755 238.427 77.6555 237.467 78.6155C236.411 79.6715 235.883 81.1115 235.883 82.9355V94.9355C236.011 94.9675 236.283 95.0315 236.699 95.1275C237.115 95.2235 237.755 95.3515 238.619 95.5115C239.099 95.6075 239.339 95.8955 239.339 96.3755V98.4395H231.611V82.9355C231.611 79.0955 230.075 77.1755 227.003 77.1755C225.019 77.1755 223.211 78.2315 221.579 80.3435V94.9355L222.875 95.1755L224.315 95.4635C224.795 95.5595 225.035 95.8635 225.035 96.3755V98.3915H213.851V96.3755C213.851 95.8635 214.075 95.5595 214.523 95.4635L217.307 94.9355V77.6075C215.707 77.3195 214.779 77.1275 214.523 77.0315C214.075 76.9355 213.851 76.6315 213.851 76.1195V74.1035H219.803C220.379 74.1035 220.763 74.3915 220.955 74.9675L221.291 77.4635V77.5115ZM278.707 85.8155H266.899V82.1675H278.707V85.8155ZM327.107 66.1355C327.107 66.6155 326.883 66.9035 326.435 66.9995L324.035 67.5755L311.411 98.4875H307.235L294.659 67.5755C293.315 67.2875 292.499 67.0955 292.211 66.9995C291.731 66.9035 291.491 66.6155 291.491 66.1355V64.0235H302.915V66.1355C302.915 66.6475 302.595 66.9515 301.955 67.0475L300.899 67.2875L299.459 67.5755L308.243 89.4155C308.595 90.1835 308.979 91.4315 309.395 93.1595C309.843 91.3035 310.211 90.0395 310.499 89.3675L319.187 67.5275C317.651 67.2395 316.739 67.0475 316.451 66.9515C315.971 66.8555 315.731 66.5515 315.731 66.0395V64.0235L327.107 64.0715V66.1355ZM330.783 68.5835C330.527 68.3275 330.303 68.0075 330.111 67.6235C329.951 67.3035 329.871 66.9195 329.871 66.4715C329.871 65.9915 329.951 65.5915 330.111 65.2715C330.335 64.8235 330.559 64.4875 330.783 64.2635C331.039 64.0075 331.359 63.7835 331.743 63.5915C332.063 63.4315 332.447 63.3515 332.895 63.3515C333.343 63.3515 333.727 63.4315 334.047 63.5915C334.431 63.7835 334.751 64.0075 335.007 64.2635C335.231 64.4875 335.455 64.8235 335.679 65.2715C335.871 65.6555 335.967 66.0555 335.967 66.4715C335.967 66.8555 335.871 67.2395 335.679 67.6235C335.487 68.0075 335.263 68.3275 335.007 68.5835C334.751 68.8395 334.431 69.0635 334.047 69.2555C333.727 69.4155 333.343 69.4955 332.895 69.4955C332.447 69.4955 332.063 69.4155 331.743 69.2555C331.359 69.0635 331.039 68.8395 330.783 68.5835ZM337.743 95.4155C337.967 95.4475 338.143 95.5595 338.271 95.7515C338.399 95.9115 338.463 96.1035 338.463 96.3275V98.3915H327.279V96.3275C327.279 96.1035 327.343 95.9115 327.471 95.7515C327.599 95.5595 327.775 95.4475 327.999 95.4155L330.783 94.8875V77.5595L327.999 77.0315C327.775 76.9995 327.599 76.9035 327.471 76.7435C327.343 76.5515 327.279 76.3435 327.279 76.1195V74.1035H335.007V94.8875L337.743 95.4155ZM348.466 77.5595C350.866 74.9675 353.554 73.6715 356.53 73.6715C359.154 73.6715 361.17 74.5195 362.578 76.2155C363.954 77.8795 364.642 80.1035 364.642 82.8875V94.8395C366.178 95.1275 367.09 95.3195 367.378 95.4155C367.89 95.5115 368.146 95.8155 368.146 96.3275V98.3915H360.37V82.9355C360.37 79.0315 358.674 77.0795 355.282 77.0795C352.882 77.0795 350.674 78.2155 348.658 80.4875V94.8875C348.786 94.8875 349.714 95.0795 351.442 95.4635C351.922 95.5595 352.162 95.8635 352.162 96.3755V98.3915H340.978V96.3755C340.978 95.8635 341.202 95.5595 341.65 95.4635L344.434 94.9355V77.6075C342.834 77.3195 341.906 77.1275 341.65 77.0315C341.202 76.9355 340.978 76.6315 340.978 76.1195V74.1035H346.93C347.506 74.1035 347.89 74.3915 348.082 74.9675L348.466 77.6075V77.5595ZM380.642 73.6235C383.33 73.6235 385.538 74.5835 387.266 76.5035V66.5195L384.05 65.9435C383.57 65.8475 383.33 65.5595 383.33 65.0795V62.9675H391.49V94.8395C393.09 95.1275 394.018 95.3195 394.274 95.4155C394.722 95.5115 394.946 95.7995 394.946 96.2795V98.3915H388.994C388.418 98.3915 388.034 98.0875 387.842 97.4795L387.458 94.5515C385.186 97.3035 382.466 98.6795 379.298 98.6795C376.45 98.6795 374.21 97.6235 372.578 95.5115C370.914 93.3035 370.082 90.2315 370.082 86.2955C370.082 82.6155 371.026 79.6075 372.914 77.2715C374.866 74.8395 377.442 73.6235 380.642 73.6235ZM380.738 95.2715C383.266 95.2715 385.442 94.0395 387.266 91.5755V79.8635C385.826 77.9435 383.954 76.9835 381.65 76.9835C379.314 76.9835 377.538 77.7835 376.322 79.3835C375.106 80.9835 374.498 83.2875 374.498 86.2955C374.498 90.8715 375.682 93.6875 378.05 94.7435C378.786 95.0635 379.666 95.2235 380.69 95.2235L380.738 95.2715ZM408.472 73.7195C410.232 73.7195 411.832 74.0075 413.272 74.5835C414.68 75.1595 415.912 75.9915 416.968 77.0795C417.96 78.1035 418.728 79.4155 419.272 81.0155C419.816 82.5835 420.088 84.3115 420.088 86.1995C420.088 88.0875 419.816 89.8155 419.272 91.3835C418.728 92.9835 417.96 94.2955 416.968 95.3195C415.912 96.4075 414.68 97.2395 413.272 97.8155C411.832 98.3915 410.232 98.6795 408.472 98.6795C406.712 98.6795 405.112 98.3915 403.672 97.8155C402.264 97.2395 401.032 96.4075 399.976 95.3195C399.016 94.3275 398.232 93.0155 397.624 91.3835C397.112 90.0075 396.856 88.2795 396.856 86.1995C396.856 84.1195 397.112 82.3915 397.624 81.0155C398.232 79.3835 399.016 78.0715 399.976 77.0795C401.032 75.9915 402.264 75.1595 403.672 74.5835C405.112 74.0075 406.712 73.7195 408.472 73.7195ZM408.472 95.4155C410.936 95.4155 412.728 94.6155 413.848 93.0155C415.032 91.3515 415.624 89.0955 415.624 86.2475C415.624 83.3995 415.032 81.1435 413.848 79.4795C412.728 77.8795 410.936 77.0795 408.472 77.0795C407.224 77.0795 406.168 77.2715 405.304 77.6555C404.472 78.0395 403.736 78.6475 403.096 79.4795C402.488 80.3115 402.04 81.2715 401.752 82.3595C401.432 83.6395 401.272 84.9515 401.272 86.2955C401.272 87.5755 401.432 88.8555 401.752 90.1355C402.04 91.2235 402.488 92.1835 403.096 93.0155C403.64 93.7515 404.376 94.3275 405.304 94.7435C406.328 95.1915 407.384 95.4155 408.472 95.4155Z" fill="#0094FF"/>
</g>
<defs>
<linearGradient id="paint0_linear_156_797" x1="236.83" y1="443.504" x2="236.83" y2="136.895" gradientUnits="userSpaceOnUse">
<stop stop-color="#808080" stop-opacity="0.25"/>
<stop offset="0.54" stop-color="#808080" stop-opacity="0.12"/>
<stop offset="1" stop-color="#808080" stop-opacity="0.1"/>
</linearGradient>
<linearGradient id="paint1_linear_156_797" x1="438.725" y1="456.928" x2="438.725" y2="130.313" gradientUnits="userSpaceOnUse">
<stop stop-color="#808080" stop-opacity="0.25"/>
<stop offset="0.54" stop-color="#808080" stop-opacity="0.12"/>
<stop offset="1" stop-color="#808080" stop-opacity="0.1"/>
</linearGradient>
<clipPath id="clip0_156_797">
<rect width="594" height="458" fill="white"/>
</clipPath>
</defs>
</svg>
