<svg width="185" height="58" viewBox="0 0 185 58" fill="none" xmlns="http://www.w3.org/2000/svg">
<path d="M72.6587 12.1094C72.6587 5.41992 67.2522 0 60.5793 0C53.9065 0 48.5 5.41992 48.5 12.1094C48.5 18.1533 52.9172 23.1631 58.6919 24.0723V15.6099H55.6234V12.1094H58.6919V9.44141C58.6919 6.40674 60.4941 4.73047 63.2543 4.73047C64.5763 4.73047 65.9586 4.9668 65.9586 4.9668V7.94531H64.435C62.9348 7.94531 62.4667 8.87891 62.4667 9.83643V12.1094H65.8168L65.281 15.6099H62.4667V24.0723C68.2415 23.1631 72.6587 18.1533 72.6587 12.1094Z" fill="#007CD6"/>
<path d="M99.9707 4.17871C97.9299 2.12793 95.212 1 92.3237 1C86.362 1 81.5108 5.86328 81.5108 11.8398C81.5108 13.749 82.0076 15.6143 82.9525 17.2598L81.4182 22.875L87.151 21.3662C88.7291 22.2305 90.5069 22.6846 92.3189 22.6846H92.3237C98.2806 22.6846 103.239 17.8213 103.239 11.8447C103.239 8.94922 102.012 6.22949 99.9707 4.17871ZM92.3237 20.8584C90.7066 20.8584 89.1237 20.4238 87.7453 19.6035L87.4189 19.4082L84.0192 20.3018L84.9251 16.9766L84.7108 16.6348C83.8097 15.1992 83.3373 13.5439 83.3373 11.8398C83.3373 6.87402 87.3702 2.83105 92.3286 2.83105C94.7298 2.83105 96.985 3.76855 98.68 5.47266C100.375 7.17676 101.417 9.4375 101.412 11.8447C101.412 16.8154 97.2772 20.8584 92.3237 20.8584ZM97.2529 14.1104C96.985 13.9736 95.6553 13.3193 95.4069 13.2314C95.1585 13.1387 94.9783 13.0947 94.798 13.3682C94.6178 13.6416 94.1015 14.2471 93.9408 14.4326C93.7849 14.6133 93.6242 14.6377 93.3563 14.501C91.7685 13.7051 90.7261 13.0801 89.6789 11.2783C89.4013 10.7998 89.9566 10.834 90.4729 9.79883C90.5605 9.61816 90.5167 9.46191 90.4485 9.3252C90.3803 9.18848 89.8397 7.85547 89.6156 7.31348C89.3964 6.78613 89.1724 6.85938 89.0068 6.84961C88.8509 6.83984 88.6707 6.83984 88.4905 6.83984C88.3103 6.83984 88.018 6.9082 87.7696 7.17676C87.5212 7.4502 86.8247 8.10449 86.8247 9.4375C86.8247 10.7705 87.794 12.0596 87.9255 12.2402C88.0619 12.4209 89.8299 15.1553 92.5429 16.332C94.2574 17.0742 94.9295 17.1377 95.7868 17.0107C96.308 16.9326 97.3844 16.3564 97.6084 15.7217C97.8325 15.0869 97.8325 14.5449 97.7643 14.4326C97.701 14.3105 97.5208 14.2422 97.2529 14.1104Z" fill="#04AD48"/>
<path d="M124.421 0C117.748 0 112.341 5.41992 112.341 12.1094C112.341 18.7988 117.748 24.2188 124.421 24.2188C131.094 24.2188 136.5 18.7988 136.5 12.1094C136.5 5.41992 131.094 0 124.421 0ZM130.353 8.2959L128.371 17.6611C128.225 18.3252 127.83 18.4863 127.28 18.1738L124.26 15.9424L122.804 17.3486C122.643 17.5098 122.506 17.6465 122.195 17.6465L122.409 14.5654L128.005 9.49707C128.249 9.28223 127.952 9.16016 127.63 9.375L120.714 13.7402L117.733 12.8076C117.085 12.6025 117.071 12.1582 117.87 11.8457L129.515 7.34375C130.056 7.14844 130.529 7.47559 130.353 8.2959Z" fill="#007CD6"/>
<path d="M4.192 43.8827C4.71467 43.8827 5.18933 43.9627 5.616 44.1227C6.02133 44.2721 6.39467 44.5174 6.736 44.8587C7.04533 45.1681 7.29067 45.5574 7.472 46.0267C7.65333 46.5067 7.744 47.0294 7.744 47.5947C7.744 47.7227 7.73333 47.8507 7.712 47.9787C7.69067 48.0961 7.66933 48.1707 7.648 48.2027C7.62667 48.2561 7.57867 48.2987 7.504 48.3307C7.46133 48.3521 7.38667 48.3627 7.28 48.3627H2.208C2.272 49.2054 2.50133 49.8241 2.896 50.2188C3.29067 50.6134 3.81333 50.8107 4.464 50.8107C4.79467 50.8107 5.06667 50.7734 5.28 50.6987C5.51467 50.6241 5.71733 50.5387 5.888 50.4427C5.96267 50.4001 6.03733 50.3627 6.112 50.3307C6.19733 50.2881 6.27733 50.2454 6.352 50.2027C6.46933 50.1281 6.592 50.0907 6.72 50.0907C6.80533 50.0907 6.88 50.1067 6.944 50.1387C6.99733 50.1601 7.04533 50.2027 7.088 50.2667L7.664 50.9867C7.41867 51.2641 7.17333 51.4827 6.928 51.6427C6.64 51.8241 6.35733 51.9627 6.08 52.0587C5.81333 52.1441 5.50933 52.2134 5.168 52.2668C4.90133 52.3094 4.60267 52.3308 4.272 52.3308C3.68533 52.3308 3.15733 52.2401 2.688 52.0587C2.21867 51.8774 1.792 51.5947 1.408 51.2107C1.04533 50.8481 0.757333 50.3894 0.544 49.8347C0.341333 49.3014 0.24 48.6667 0.24 47.9307C0.24 47.3974 0.330667 46.8747 0.512 46.3627C0.682667 45.8827 0.944 45.4507 1.296 45.0667C1.62667 44.7041 2.03733 44.4161 2.528 44.2027C3.01867 43.9894 3.57333 43.8827 4.192 43.8827ZM4.224 45.2907C3.65867 45.2907 3.21067 45.4561 2.88 45.7867C2.56 46.1067 2.352 46.5654 2.256 47.1627H5.968C5.968 46.9387 5.93067 46.6987 5.856 46.4427C5.792 46.2401 5.68533 46.0427 5.536 45.8507C5.39733 45.6801 5.216 45.5467 4.992 45.4507C4.74667 45.3441 4.49067 45.2907 4.224 45.2907ZM17.4724 50.7787C17.739 50.8427 17.8724 51.0081 17.8724 51.2747V52.2188H14.6884V47.0027C14.6884 46.5121 14.571 46.1227 14.3364 45.8347C14.1124 45.5574 13.7657 45.4187 13.2964 45.4187C12.955 45.4187 12.635 45.4987 12.3364 45.6587C12.0164 45.8294 11.7337 46.0374 11.4884 46.2827V50.6347L11.9524 50.7147L12.1924 50.7627L12.2884 50.7787C12.555 50.8427 12.6884 51.0081 12.6884 51.2747V52.2188H8.30438V51.2747C8.30438 51.0081 8.43771 50.8427 8.70438 50.7787L8.80038 50.7627L9.04037 50.7147L9.50438 50.6347V45.5947L9.04037 45.5147C8.98704 45.5041 8.93904 45.4934 8.89638 45.4827C8.86438 45.4721 8.83238 45.4667 8.80038 45.4667L8.70438 45.4507C8.43771 45.3867 8.30438 45.2214 8.30438 44.9547V44.0107H10.7204C10.9657 44.0107 11.131 44.1334 11.2164 44.3787L11.3604 45.0187C11.5097 44.8481 11.6804 44.6934 11.8724 44.5547C12.0217 44.4374 12.219 44.3201 12.4644 44.2027C12.7417 44.0747 12.9604 43.9947 13.1204 43.9627C13.387 43.9094 13.643 43.8827 13.8884 43.8827C14.3577 43.8827 14.7577 43.9574 15.0884 44.1067C15.3977 44.2347 15.6857 44.4481 15.9524 44.7467C16.1764 45.0134 16.3524 45.3441 16.4804 45.7387C16.5977 46.0907 16.6564 46.5121 16.6564 47.0027V50.6347L17.1364 50.7147C17.1897 50.7254 17.2324 50.7361 17.2644 50.7467C17.307 50.7574 17.3444 50.7627 17.3764 50.7627L17.4724 50.7787ZM21.8043 52.3468C21.0896 52.3468 20.5403 52.1441 20.1562 51.7387C19.7723 51.3334 19.5803 50.7787 19.5803 50.0747V45.4987H18.7483C18.6629 45.4987 18.5723 45.4614 18.4763 45.3867C18.3909 45.3227 18.3483 45.2214 18.3483 45.0827V44.2827L19.6763 44.0747L20.0923 41.8347C20.1029 41.7387 20.1509 41.6587 20.2363 41.5947C20.3216 41.5307 20.4229 41.4987 20.5403 41.4987H21.5643V44.0907H23.7243V45.4987H21.5643V49.9467C21.5643 50.1921 21.6283 50.3894 21.7563 50.5387C21.8843 50.6774 22.0549 50.7467 22.2682 50.7467C22.4176 50.7467 22.5189 50.7361 22.5723 50.7147L22.7803 50.6187L22.9563 50.5227C22.9883 50.5014 23.0309 50.4907 23.0843 50.4907C23.1696 50.4907 23.2229 50.5014 23.2443 50.5227L23.3563 50.6507L23.9483 51.6107C23.6709 51.8347 23.3403 52.0161 22.9563 52.1547C22.5936 52.2828 22.2096 52.3468 21.8043 52.3468ZM29.8846 43.8667C30.3006 43.8667 30.6366 43.9574 30.8926 44.1388L30.6366 45.6267C30.626 45.7227 30.594 45.7867 30.5406 45.8187C30.4766 45.8614 30.402 45.8827 30.3166 45.8827C30.242 45.8827 30.1353 45.8667 29.9966 45.8347C29.8046 45.7921 29.618 45.7707 29.4366 45.7707C29.0206 45.7707 28.6686 45.8827 28.3806 46.1067C28.114 46.3094 27.8686 46.6454 27.6446 47.1147V50.6347L28.4446 50.7787C28.7113 50.8427 28.8446 51.0081 28.8446 51.2747V52.2188H24.4606V51.2747C24.4606 51.0081 24.594 50.8427 24.8606 50.7787L25.6606 50.6347V45.5947L24.8606 45.4507C24.594 45.3867 24.4606 45.2214 24.4606 44.9547V44.0107H26.8286C27.0313 44.0107 27.17 44.0481 27.2446 44.1227C27.3193 44.1974 27.3726 44.3254 27.4046 44.5067L27.5326 45.4987C27.8206 44.9761 28.162 44.5761 28.5566 44.2987C28.962 44.0107 29.4046 43.8667 29.8846 43.8667ZM35.3014 43.8827C35.824 43.8827 36.2987 43.9627 36.7254 44.1227C37.1307 44.2721 37.504 44.5174 37.8454 44.8587C38.1547 45.1681 38.4 45.5574 38.5814 46.0267C38.7627 46.5067 38.8534 47.0294 38.8534 47.5947C38.8534 47.7227 38.8427 47.8507 38.8214 47.9787C38.8 48.0961 38.7787 48.1707 38.7574 48.2027C38.736 48.2561 38.688 48.2987 38.6134 48.3307C38.5707 48.3521 38.496 48.3627 38.3894 48.3627H33.3174C33.3814 49.2054 33.6107 49.8241 34.0054 50.2188C34.4 50.6134 34.9227 50.8107 35.5734 50.8107C35.904 50.8107 36.176 50.7734 36.3894 50.6987C36.624 50.6241 36.8267 50.5387 36.9974 50.4427C37.072 50.4001 37.1467 50.3627 37.2214 50.3307C37.3067 50.2881 37.3867 50.2454 37.4614 50.2027C37.5787 50.1281 37.7014 50.0907 37.8294 50.0907C37.9147 50.0907 37.9894 50.1067 38.0534 50.1387C38.1067 50.1601 38.1547 50.2027 38.1974 50.2667L38.7734 50.9867C38.528 51.2641 38.2827 51.4827 38.0374 51.6427C37.7494 51.8241 37.4667 51.9627 37.1894 52.0587C36.9227 52.1441 36.6187 52.2134 36.2774 52.2668C36.0107 52.3094 35.712 52.3308 35.3814 52.3308C34.7947 52.3308 34.2667 52.2401 33.7974 52.0587C33.328 51.8774 32.9014 51.5947 32.5174 51.2107C32.1547 50.8481 31.8667 50.3894 31.6534 49.8347C31.4507 49.3014 31.3494 48.6667 31.3494 47.9307C31.3494 47.3974 31.44 46.8747 31.6214 46.3627C31.792 45.8827 32.0534 45.4507 32.4054 45.0667C32.736 44.7041 33.1467 44.4161 33.6374 44.2027C34.128 43.9894 34.6827 43.8827 35.3014 43.8827ZM35.3334 45.2907C34.768 45.2907 34.32 45.4561 33.9894 45.7867C33.6694 46.1067 33.4614 46.5654 33.3654 47.1627H37.0774C37.0774 46.9387 37.04 46.6987 36.9654 46.4427C36.9014 46.2401 36.7947 46.0427 36.6454 45.8507C36.5067 45.6801 36.3254 45.5467 36.1014 45.4507C35.856 45.3441 35.6 45.2907 35.3334 45.2907ZM46.9889 43.8827C47.5115 43.8827 47.9862 43.9627 48.4129 44.1227C48.8182 44.2721 49.1915 44.5174 49.5329 44.8587C49.8422 45.1681 50.0875 45.5574 50.2689 46.0267C50.4502 46.5067 50.5409 47.0294 50.5409 47.5947C50.5409 47.7227 50.5302 47.8507 50.5089 47.9787C50.4875 48.0961 50.4662 48.1707 50.4449 48.2027C50.4235 48.2561 50.3755 48.2987 50.3009 48.3307C50.2582 48.3521 50.1835 48.3627 50.0769 48.3627H45.0049C45.0689 49.2054 45.2982 49.8241 45.6929 50.2188C46.0875 50.6134 46.6102 50.8107 47.2609 50.8107C47.5915 50.8107 47.8635 50.7734 48.0769 50.6987C48.3115 50.6241 48.5142 50.5387 48.6849 50.4427C48.7595 50.4001 48.8342 50.3627 48.9089 50.3307C48.9942 50.2881 49.0742 50.2454 49.1489 50.2027C49.2662 50.1281 49.3889 50.0907 49.5169 50.0907C49.6022 50.0907 49.6769 50.1067 49.7409 50.1387C49.7942 50.1601 49.8422 50.2027 49.8849 50.2667L50.4609 50.9867C50.2155 51.2641 49.9702 51.4827 49.7249 51.6427C49.4369 51.8241 49.1542 51.9627 48.8769 52.0587C48.6102 52.1441 48.3062 52.2134 47.9649 52.2668C47.6982 52.3094 47.3995 52.3308 47.0689 52.3308C46.4822 52.3308 45.9542 52.2401 45.4849 52.0587C45.0155 51.8774 44.5889 51.5947 44.2049 51.2107C43.8422 50.8481 43.5542 50.3894 43.3409 49.8347C43.1382 49.3014 43.0369 48.6667 43.0369 47.9307C43.0369 47.3974 43.1275 46.8747 43.3089 46.3627C43.4795 45.8827 43.7409 45.4507 44.0929 45.0667C44.4235 44.7041 44.8342 44.4161 45.3249 44.2027C45.8155 43.9894 46.3702 43.8827 46.9889 43.8827ZM47.0209 45.2907C46.4555 45.2907 46.0075 45.4561 45.6769 45.7867C45.3569 46.1067 45.1489 46.5654 45.0529 47.1627H48.7649C48.7649 46.9387 48.7275 46.6987 48.6529 46.4427C48.5889 46.2401 48.4822 46.0427 48.3329 45.8507C48.1942 45.6801 48.0129 45.5467 47.7889 45.4507C47.5435 45.3441 47.2875 45.2907 47.0209 45.2907ZM64.6373 50.7787C64.9039 50.8427 65.0373 51.0081 65.0373 51.2747V52.2188H61.8533V47.0027C61.8533 46.4694 61.7413 46.0747 61.5173 45.8187C61.2933 45.5521 60.9573 45.4187 60.5093 45.4187C60.3279 45.4187 60.1359 45.4561 59.9333 45.5307C59.7626 45.5947 59.6133 45.6907 59.4853 45.8187C59.3786 45.9254 59.2773 46.0907 59.1813 46.3147C59.1066 46.4961 59.0693 46.7254 59.0693 47.0027V50.6347L59.5333 50.7147L59.7733 50.7627L59.8693 50.7787C60.1359 50.8427 60.2693 51.0081 60.2693 51.2747V52.2188H57.0853V47.0027C57.0853 46.4587 56.9733 46.0587 56.7493 45.8027C56.5253 45.5467 56.1999 45.4187 55.7733 45.4187C55.4853 45.4187 55.2186 45.4881 54.9733 45.6267C54.7493 45.7547 54.5199 45.9521 54.2853 46.2187V50.6347L54.7493 50.7147L54.9893 50.7627L55.0853 50.7787C55.3519 50.8427 55.4852 51.0081 55.4852 51.2747V52.2188H51.1013V51.2747C51.1013 51.0081 51.2346 50.8427 51.5013 50.7787L51.5973 50.7627C51.6293 50.7627 51.6613 50.7574 51.6933 50.7467C51.7359 50.7361 51.7839 50.7254 51.8372 50.7147L52.3013 50.6347V45.5947L51.8372 45.5147C51.7839 45.5041 51.7359 45.4934 51.6933 45.4827C51.6613 45.4721 51.6293 45.4667 51.5973 45.4667L51.5013 45.4507C51.2239 45.3867 51.0853 45.2214 51.0853 44.9547V44.0107H53.5173C53.7626 44.0107 53.9279 44.1334 54.0133 44.3787L54.1413 44.9867C54.3333 44.7734 54.4826 44.6241 54.5893 44.5387C54.7386 44.4214 54.9093 44.3094 55.1013 44.2027C55.2719 44.1067 55.4639 44.0267 55.6773 43.9627C55.8479 43.9094 56.0719 43.8827 56.3493 43.8827C56.8826 43.8827 57.3093 44.0214 57.6293 44.2987C57.9706 44.5974 58.2213 44.9707 58.3813 45.4187C58.5093 45.1414 58.6693 44.9067 58.8612 44.7147C59.0319 44.5441 59.2399 44.3894 59.4853 44.2507C59.6666 44.1441 59.9119 44.0534 60.2213 43.9787C60.4773 43.9147 60.7386 43.8827 61.0053 43.8827C61.4639 43.8827 61.8639 43.9521 62.2053 44.0907C62.5786 44.2401 62.8773 44.4427 63.1013 44.6987C63.3359 44.9654 63.5173 45.2907 63.6453 45.6747C63.7733 46.0587 63.8373 46.5014 63.8373 47.0027V50.6347L64.3013 50.7147C64.3546 50.7254 64.3973 50.7361 64.4293 50.7467C64.4719 50.7574 64.5093 50.7627 64.5413 50.7627L64.6373 50.7787ZM76.1989 50.9867C75.9429 51.2747 75.7082 51.4934 75.4949 51.6427C75.2815 51.7814 75.0149 51.9201 74.6949 52.0587C74.4602 52.1441 74.1775 52.2134 73.8469 52.2668C73.5909 52.3094 73.2975 52.3308 72.9669 52.3308C72.4442 52.3308 71.9695 52.2401 71.5429 52.0587C71.0949 51.8667 70.7055 51.5894 70.3749 51.2267C70.0229 50.8427 69.7562 50.4001 69.5749 49.8987C69.3829 49.3654 69.2869 48.7627 69.2869 48.0907C69.2869 47.4827 69.3722 46.9281 69.5429 46.4267C69.7242 45.9147 69.9802 45.4667 70.3109 45.0827C70.6415 44.7094 71.0575 44.4161 71.5589 44.2027C72.0709 43.9894 72.6415 43.8827 73.2709 43.8827C73.9535 43.8827 74.8175 44.0801 75.8629 44.4747L75.8469 47.0027H74.9349C74.7429 47.0027 74.6202 46.9014 74.5669 46.6987L74.4389 45.5467C74.0442 45.4401 73.6922 45.3867 73.3829 45.3867C73.0309 45.3867 72.7269 45.4507 72.4709 45.5787C72.2042 45.7067 71.9909 45.8827 71.8309 46.1067C71.6389 46.3734 71.5055 46.6614 71.4309 46.9707C71.3455 47.3334 71.3029 47.7067 71.3029 48.0907C71.3029 48.5281 71.3509 48.9174 71.4469 49.2587C71.5429 49.6107 71.6762 49.8987 71.8469 50.1227C72.0282 50.3467 72.2415 50.5227 72.4869 50.6507C72.7535 50.7681 73.0362 50.8267 73.3349 50.8267C73.6655 50.8267 73.9215 50.7894 74.1029 50.7147C74.3375 50.6187 74.5029 50.5334 74.5989 50.4587C74.6522 50.4161 74.7055 50.3787 74.7589 50.3467C74.8229 50.3041 74.8869 50.2561 74.9509 50.2027C75.0362 50.1281 75.1429 50.0907 75.2709 50.0907C75.4415 50.0907 75.5642 50.1494 75.6389 50.2667L76.1989 50.9867ZM80.7106 43.8827C81.2973 43.8827 81.852 43.9841 82.3746 44.1867C82.8866 44.3894 83.3133 44.6667 83.6546 45.0187C83.996 45.3707 84.2626 45.8134 84.4546 46.3467C84.6466 46.8694 84.7426 47.4507 84.7426 48.0907C84.7426 48.7307 84.6466 49.3174 84.4546 49.8507C84.252 50.3947 83.9853 50.8427 83.6546 51.1947C83.3026 51.5681 82.876 51.8507 82.3746 52.0427C81.884 52.2347 81.3293 52.3308 80.7106 52.3308C80.092 52.3308 79.532 52.2347 79.0306 52.0427C78.5293 51.8507 78.1026 51.5681 77.7506 51.1947C77.3773 50.8107 77.1 50.3627 76.9186 49.8507C76.7266 49.3174 76.6306 48.7307 76.6306 48.0907C76.6306 47.4507 76.7266 46.8694 76.9186 46.3467C77.1 45.8561 77.3773 45.4134 77.7506 45.0187C78.092 44.6667 78.5186 44.3894 79.0306 44.1867C79.5533 43.9841 80.1133 43.8827 80.7106 43.8827ZM80.7106 50.8107C81.3933 50.8107 81.8946 50.5814 82.2146 50.1227C82.5453 49.6427 82.7106 48.9707 82.7106 48.1068C82.7106 47.2427 82.5453 46.5707 82.2146 46.0907C81.8946 45.6214 81.3933 45.3867 80.7106 45.3867C80.028 45.3867 79.516 45.6214 79.1746 46.0907C78.8333 46.5601 78.6626 47.2374 78.6626 48.1227C78.6626 48.9867 78.8333 49.6534 79.1746 50.1227C79.5053 50.5814 80.0173 50.8107 80.7106 50.8107ZM94.488 50.7787C94.7547 50.8427 94.888 51.0081 94.888 51.2747V52.2188H91.704V47.0027C91.704 46.5121 91.5867 46.1227 91.352 45.8347C91.128 45.5574 90.7813 45.4187 90.312 45.4187C89.9707 45.4187 89.6507 45.4987 89.352 45.6587C89.032 45.8294 88.7493 46.0374 88.504 46.2827V50.6347L88.968 50.7147L89.208 50.7627L89.304 50.7787C89.5707 50.8427 89.704 51.0081 89.704 51.2747V52.2188H85.32V51.2747C85.32 51.0081 85.4533 50.8427 85.72 50.7787L85.816 50.7627L86.056 50.7147L86.52 50.6347V45.5947L86.056 45.5147C86.0027 45.5041 85.9547 45.4934 85.912 45.4827C85.88 45.4721 85.848 45.4667 85.816 45.4667L85.72 45.4507C85.4533 45.3867 85.32 45.2214 85.32 44.9547V44.0107H87.736C87.9813 44.0107 88.1467 44.1334 88.232 44.3787L88.376 45.0187C88.5253 44.8481 88.696 44.6934 88.888 44.5547C89.0373 44.4374 89.2347 44.3201 89.48 44.2027C89.7573 44.0747 89.976 43.9947 90.136 43.9627C90.4027 43.9094 90.6587 43.8827 90.904 43.8827C91.3733 43.8827 91.7733 43.9574 92.104 44.1067C92.4133 44.2347 92.7013 44.4481 92.968 44.7467C93.192 45.0134 93.368 45.3441 93.496 45.7387C93.6133 46.0907 93.672 46.5121 93.672 47.0027V50.6347L94.152 50.7147C94.2053 50.7254 94.248 50.7361 94.28 50.7467C94.3227 50.7574 94.36 50.7627 94.392 50.7627L94.488 50.7787ZM98.8199 52.3468C98.1052 52.3468 97.5559 52.1441 97.1719 51.7387C96.7879 51.3334 96.5959 50.7787 96.5959 50.0747V45.4987H95.7639C95.6785 45.4987 95.5879 45.4614 95.4919 45.3867C95.4065 45.3227 95.3639 45.2214 95.3639 45.0827V44.2827L96.6919 44.0747L97.1079 41.8347C97.1185 41.7387 97.1665 41.6587 97.2519 41.5947C97.3372 41.5307 97.4385 41.4987 97.5559 41.4987H98.5799V44.0907H100.74V45.4987H98.5799V49.9467C98.5799 50.1921 98.6439 50.3894 98.7719 50.5387C98.8999 50.6774 99.0705 50.7467 99.2839 50.7467C99.4332 50.7467 99.5345 50.7361 99.5879 50.7147L99.7959 50.6187L99.9719 50.5227C100.004 50.5014 100.047 50.4907 100.1 50.4907C100.185 50.4907 100.239 50.5014 100.26 50.5227L100.372 50.6507L100.964 51.6107C100.687 51.8347 100.356 52.0161 99.9719 52.1547C99.6092 52.2828 99.2252 52.3468 98.8199 52.3468ZM108.804 50.7627C109.071 50.8267 109.204 50.9921 109.204 51.2587V52.2027H107.316C107.114 52.2027 106.964 52.1761 106.868 52.1227C106.762 52.0801 106.682 51.9627 106.628 51.7707L106.452 51.1947C106.239 51.3974 106.036 51.5627 105.844 51.6908C105.695 51.7974 105.487 51.9147 105.22 52.0427C105.028 52.1281 104.804 52.1974 104.548 52.2508C104.282 52.3041 104.015 52.3308 103.748 52.3308C103.396 52.3308 103.076 52.2828 102.788 52.1867C102.479 52.0801 102.228 51.9414 102.036 51.7707C101.812 51.5681 101.647 51.3334 101.54 51.0667C101.423 50.7787 101.364 50.4587 101.364 50.1068C101.364 49.7867 101.444 49.4774 101.604 49.1787C101.764 48.8694 102.036 48.5974 102.42 48.3627C102.826 48.1067 103.327 47.9041 103.924 47.7547C104.554 47.5947 105.338 47.5148 106.276 47.5148V47.0347C106.276 46.5014 106.159 46.0907 105.924 45.8027C105.7 45.5361 105.364 45.4027 104.916 45.4027C104.575 45.4027 104.308 45.4401 104.116 45.5147C103.871 45.6107 103.684 45.6961 103.556 45.7707L103.124 46.0107C103.007 46.0854 102.863 46.1227 102.692 46.1227C102.554 46.1227 102.436 46.0907 102.34 46.0267C102.276 45.9841 102.202 45.8987 102.116 45.7707L101.748 45.1467C102.708 44.2721 103.844 43.8347 105.156 43.8347C105.636 43.8347 106.068 43.9147 106.452 44.0747C106.826 44.2347 107.14 44.4534 107.396 44.7307C107.684 45.0614 107.887 45.3974 108.004 45.7387C108.132 46.1227 108.196 46.5494 108.196 47.0187V50.6507L108.628 50.7307L108.804 50.7627ZM106.276 48.7147C105.679 48.7147 105.199 48.7521 104.836 48.8267C104.442 48.9121 104.127 49.0081 103.892 49.1147C103.658 49.2214 103.492 49.3494 103.396 49.4987C103.3 49.6374 103.252 49.8027 103.252 49.9947C103.252 50.3574 103.354 50.6081 103.556 50.7467C103.77 50.8961 104.036 50.9707 104.356 50.9707C104.559 50.9707 104.746 50.9547 104.916 50.9227C105.098 50.8907 105.263 50.8321 105.412 50.7467C105.604 50.6401 105.748 50.5494 105.844 50.4747C105.994 50.3574 106.138 50.2294 106.276 50.0907V48.7147ZM113.148 52.3468C112.433 52.3468 111.884 52.1441 111.5 51.7387C111.116 51.3334 110.924 50.7787 110.924 50.0747V45.4987H110.092C110.007 45.4987 109.916 45.4614 109.82 45.3867C109.735 45.3227 109.692 45.2214 109.692 45.0827V44.2827L111.02 44.0747L111.436 41.8347C111.447 41.7387 111.495 41.6587 111.58 41.5947C111.665 41.5307 111.767 41.4987 111.884 41.4987H112.908V44.0907H115.068V45.4987H112.908V49.9467C112.908 50.1921 112.972 50.3894 113.1 50.5387C113.228 50.6774 113.399 50.7467 113.612 50.7467C113.761 50.7467 113.863 50.7361 113.916 50.7147L114.124 50.6187L114.3 50.5227C114.332 50.5014 114.375 50.4907 114.428 50.4907C114.513 50.4907 114.567 50.5014 114.588 50.5227L114.7 50.6507L115.292 51.6107C115.015 51.8347 114.684 52.0161 114.3 52.1547C113.937 52.2828 113.553 52.3468 113.148 52.3468ZM119.804 43.8827C120.391 43.8827 120.946 43.9841 121.468 44.1867C121.98 44.3894 122.407 44.6667 122.748 45.0187C123.09 45.3707 123.356 45.8134 123.548 46.3467C123.74 46.8694 123.836 47.4507 123.836 48.0907C123.836 48.7307 123.74 49.3174 123.548 49.8507C123.346 50.3947 123.079 50.8427 122.748 51.1947C122.396 51.5681 121.97 51.8507 121.468 52.0427C120.978 52.2347 120.423 52.3308 119.804 52.3308C119.186 52.3308 118.626 52.2347 118.124 52.0427C117.623 51.8507 117.196 51.5681 116.844 51.1947C116.471 50.8107 116.194 50.3627 116.012 49.8507C115.82 49.3174 115.724 48.7307 115.724 48.0907C115.724 47.4507 115.82 46.8694 116.012 46.3467C116.194 45.8561 116.471 45.4134 116.844 45.0187C117.186 44.6667 117.612 44.3894 118.124 44.1867C118.647 43.9841 119.207 43.8827 119.804 43.8827ZM119.804 50.8107C120.487 50.8107 120.988 50.5814 121.308 50.1227C121.639 49.6427 121.804 48.9707 121.804 48.1068C121.804 47.2427 121.639 46.5707 121.308 46.0907C120.988 45.6214 120.487 45.3867 119.804 45.3867C119.122 45.3867 118.61 45.6214 118.268 46.0907C117.927 46.5601 117.756 47.2374 117.756 48.1227C117.756 48.9867 117.927 49.6534 118.268 50.1227C118.599 50.5814 119.111 50.8107 119.804 50.8107ZM134.949 50.9867C134.693 51.2747 134.458 51.4934 134.245 51.6427C134.032 51.7814 133.765 51.9201 133.445 52.0587C133.21 52.1441 132.928 52.2134 132.597 52.2668C132.341 52.3094 132.048 52.3308 131.717 52.3308C131.194 52.3308 130.72 52.2401 130.293 52.0587C129.845 51.8667 129.456 51.5894 129.125 51.2267C128.773 50.8427 128.506 50.4001 128.325 49.8987C128.133 49.3654 128.037 48.7627 128.037 48.0907C128.037 47.4827 128.122 46.9281 128.293 46.4267C128.474 45.9147 128.73 45.4667 129.061 45.0827C129.392 44.7094 129.808 44.4161 130.309 44.2027C130.821 43.9894 131.392 43.8827 132.021 43.8827C132.704 43.8827 133.568 44.0801 134.613 44.4747L134.597 47.0027H133.685C133.493 47.0027 133.37 46.9014 133.317 46.6987L133.189 45.5467C132.794 45.4401 132.442 45.3867 132.133 45.3867C131.781 45.3867 131.477 45.4507 131.221 45.5787C130.954 45.7067 130.741 45.8827 130.581 46.1067C130.389 46.3734 130.256 46.6614 130.181 46.9707C130.096 47.3334 130.053 47.7067 130.053 48.0907C130.053 48.5281 130.101 48.9174 130.197 49.2587C130.293 49.6107 130.426 49.8987 130.597 50.1227C130.778 50.3467 130.992 50.5227 131.237 50.6507C131.504 50.7681 131.786 50.8267 132.085 50.8267C132.416 50.8267 132.672 50.7894 132.853 50.7147C133.088 50.6187 133.253 50.5334 133.349 50.4587C133.402 50.4161 133.456 50.3787 133.509 50.3467C133.573 50.3041 133.637 50.2561 133.701 50.2027C133.786 50.1281 133.893 50.0907 134.021 50.0907C134.192 50.0907 134.314 50.1494 134.389 50.2667L134.949 50.9867ZM139.461 43.8827C140.047 43.8827 140.602 43.9841 141.125 44.1867C141.637 44.3894 142.063 44.6667 142.405 45.0187C142.746 45.3707 143.013 45.8134 143.205 46.3467C143.397 46.8694 143.493 47.4507 143.493 48.0907C143.493 48.7307 143.397 49.3174 143.205 49.8507C143.002 50.3947 142.735 50.8427 142.405 51.1947C142.053 51.5681 141.626 51.8507 141.125 52.0427C140.634 52.2347 140.079 52.3308 139.461 52.3308C138.842 52.3308 138.282 52.2347 137.781 52.0427C137.279 51.8507 136.853 51.5681 136.501 51.1947C136.127 50.8107 135.85 50.3627 135.669 49.8507C135.477 49.3174 135.381 48.7307 135.381 48.0907C135.381 47.4507 135.477 46.8694 135.669 46.3467C135.85 45.8561 136.127 45.4134 136.501 45.0187C136.842 44.6667 137.269 44.3894 137.781 44.1867C138.303 43.9841 138.863 43.8827 139.461 43.8827ZM139.461 50.8107C140.143 50.8107 140.645 50.5814 140.965 50.1227C141.295 49.6427 141.461 48.9707 141.461 48.1068C141.461 47.2427 141.295 46.5707 140.965 46.0907C140.645 45.6214 140.143 45.3867 139.461 45.3867C138.778 45.3867 138.266 45.6214 137.925 46.0907C137.583 46.5601 137.413 47.2374 137.413 48.1227C137.413 48.9867 137.583 49.6534 137.925 50.1227C138.255 50.5814 138.767 50.8107 139.461 50.8107ZM153.238 50.7787C153.505 50.8427 153.638 51.0081 153.638 51.2747V52.2188H150.454V47.0027C150.454 46.5121 150.337 46.1227 150.102 45.8347C149.878 45.5574 149.531 45.4187 149.062 45.4187C148.721 45.4187 148.401 45.4987 148.102 45.6587C147.782 45.8294 147.499 46.0374 147.254 46.2827V50.6347L147.718 50.7147L147.958 50.7627L148.054 50.7787C148.321 50.8427 148.454 51.0081 148.454 51.2747V52.2188H144.07V51.2747C144.07 51.0081 144.203 50.8427 144.47 50.7787L144.566 50.7627L144.806 50.7147L145.27 50.6347V45.5947L144.806 45.5147C144.753 45.5041 144.705 45.4934 144.662 45.4827C144.63 45.4721 144.598 45.4667 144.566 45.4667L144.47 45.4507C144.203 45.3867 144.07 45.2214 144.07 44.9547V44.0107H146.486C146.731 44.0107 146.897 44.1334 146.982 44.3787L147.126 45.0187C147.275 44.8481 147.446 44.6934 147.638 44.5547C147.787 44.4374 147.985 44.3201 148.23 44.2027C148.507 44.0747 148.726 43.9947 148.886 43.9627C149.153 43.9094 149.409 43.8827 149.654 43.8827C150.123 43.8827 150.523 43.9574 150.854 44.1067C151.163 44.2347 151.451 44.4481 151.718 44.7467C151.942 45.0134 152.118 45.3441 152.246 45.7387C152.363 46.0907 152.422 46.5121 152.422 47.0027V50.6347L152.902 50.7147C152.955 50.7254 152.998 50.7361 153.03 50.7467C153.073 50.7574 153.11 50.7627 153.142 50.7627L153.238 50.7787ZM158.242 43.8827C158.829 43.8827 159.383 43.9841 159.906 44.1867C160.418 44.3894 160.845 44.6667 161.186 45.0187C161.527 45.3707 161.794 45.8134 161.986 46.3467C162.178 46.8694 162.274 47.4507 162.274 48.0907C162.274 48.7307 162.178 49.3174 161.986 49.8507C161.783 50.3947 161.517 50.8427 161.186 51.1947C160.834 51.5681 160.407 51.8507 159.906 52.0427C159.415 52.2347 158.861 52.3308 158.242 52.3308C157.623 52.3308 157.063 52.2347 156.562 52.0427C156.061 51.8507 155.634 51.5681 155.282 51.1947C154.909 50.8107 154.631 50.3627 154.45 49.8507C154.258 49.3174 154.162 48.7307 154.162 48.0907C154.162 47.4507 154.258 46.8694 154.45 46.3467C154.631 45.8561 154.909 45.4134 155.282 45.0187C155.623 44.6667 156.05 44.3894 156.562 44.1867C157.085 43.9841 157.645 43.8827 158.242 43.8827ZM158.242 50.8107C158.925 50.8107 159.426 50.5814 159.746 50.1227C160.077 49.6427 160.242 48.9707 160.242 48.1068C160.242 47.2427 160.077 46.5707 159.746 46.0907C159.426 45.6214 158.925 45.3867 158.242 45.3867C157.559 45.3867 157.047 45.6214 156.706 46.0907C156.365 46.5601 156.194 47.2374 156.194 48.1227C156.194 48.9867 156.365 49.6534 156.706 50.1227C157.037 50.5814 157.549 50.8107 158.242 50.8107ZM168.579 48.7627C168.697 49.0187 168.755 49.3014 168.755 49.6107C168.755 49.9947 168.681 50.3627 168.531 50.7147C168.382 51.0454 168.174 51.3334 167.907 51.5787C167.619 51.8347 167.278 52.0214 166.883 52.1387C166.499 52.2774 166.03 52.3468 165.475 52.3468C164.995 52.3468 164.521 52.3041 164.051 52.2188C163.593 52.1334 163.198 52.0267 162.867 51.8987V49.5787H163.795C163.987 49.5787 164.11 49.6801 164.163 49.8827C164.185 50.0001 164.222 50.3147 164.275 50.8267C164.563 50.9121 164.995 50.9547 165.571 50.9547C165.795 50.9547 165.998 50.9281 166.179 50.8747C166.361 50.8107 166.499 50.7361 166.595 50.6507C166.723 50.5441 166.803 50.4427 166.835 50.3467C166.878 50.2294 166.899 50.1014 166.899 49.9627C166.899 49.7707 166.846 49.6161 166.739 49.4987C166.643 49.3921 166.489 49.2854 166.275 49.1787C166.073 49.0827 165.859 49.0027 165.635 48.9387L164.883 48.6987C164.713 48.6454 164.467 48.5441 164.147 48.3947C163.891 48.2774 163.673 48.1334 163.491 47.9627C163.299 47.7921 163.15 47.5787 163.043 47.3227C162.926 47.0561 162.867 46.7467 162.867 46.3947C162.867 46.0534 162.931 45.7334 163.059 45.4347C163.187 45.1361 163.385 44.8694 163.651 44.6347C163.918 44.4001 164.243 44.2187 164.627 44.0907C165.043 43.9521 165.486 43.8827 165.955 43.8827C166.361 43.8827 166.718 43.9147 167.027 43.9787C167.337 44.0321 167.779 44.1441 168.355 44.3147H168.339V46.6347H167.427C167.235 46.6347 167.113 46.5334 167.059 46.3307C167.027 46.1921 166.99 45.8934 166.947 45.4347C166.702 45.3601 166.382 45.3227 165.987 45.3227C165.603 45.3227 165.299 45.4027 165.075 45.5627C164.851 45.7227 164.739 45.9414 164.739 46.2187C164.739 46.3787 164.798 46.5281 164.915 46.6667C165.001 46.7627 165.15 46.8641 165.363 46.9707C165.609 47.0881 165.822 47.1734 166.003 47.2267C166.089 47.2481 166.334 47.3227 166.739 47.4507C166.942 47.5147 167.193 47.6161 167.491 47.7547C167.747 47.8721 167.961 48.0107 168.131 48.1707C168.323 48.3307 168.473 48.5281 168.579 48.7627ZM176.121 50.9867C175.865 51.2747 175.63 51.4934 175.417 51.6427C175.203 51.7814 174.937 51.9201 174.617 52.0587C174.382 52.1441 174.099 52.2134 173.769 52.2668C173.513 52.3094 173.219 52.3308 172.889 52.3308C172.366 52.3308 171.891 52.2401 171.465 52.0587C171.017 51.8667 170.627 51.5894 170.297 51.2267C169.945 50.8427 169.678 50.4001 169.497 49.8987C169.305 49.3654 169.209 48.7627 169.209 48.0907C169.209 47.4827 169.294 46.9281 169.465 46.4267C169.646 45.9147 169.902 45.4667 170.233 45.0827C170.563 44.7094 170.979 44.4161 171.481 44.2027C171.993 43.9894 172.563 43.8827 173.193 43.8827C173.875 43.8827 174.739 44.0801 175.785 44.4747L175.769 47.0027H174.857C174.665 47.0027 174.542 46.9014 174.489 46.6987L174.361 45.5467C173.966 45.4401 173.614 45.3867 173.305 45.3867C172.953 45.3867 172.649 45.4507 172.393 45.5787C172.126 45.7067 171.913 45.8827 171.753 46.1067C171.561 46.3734 171.427 46.6614 171.353 46.9707C171.267 47.3334 171.225 47.7067 171.225 48.0907C171.225 48.5281 171.273 48.9174 171.369 49.2587C171.465 49.6107 171.598 49.8987 171.769 50.1227C171.95 50.3467 172.163 50.5227 172.409 50.6507C172.675 50.7681 172.958 50.8267 173.257 50.8267C173.587 50.8267 173.843 50.7894 174.025 50.7147C174.259 50.6187 174.425 50.5334 174.521 50.4587C174.574 50.4161 174.627 50.3787 174.681 50.3467C174.745 50.3041 174.809 50.2561 174.873 50.2027C174.958 50.1281 175.065 50.0907 175.193 50.0907C175.363 50.0907 175.486 50.1494 175.561 50.2667L176.121 50.9867ZM180.633 43.8827C181.219 43.8827 181.774 43.9841 182.297 44.1867C182.809 44.3894 183.235 44.6667 183.577 45.0187C183.918 45.3707 184.185 45.8134 184.377 46.3467C184.569 46.8694 184.665 47.4507 184.665 48.0907C184.665 48.7307 184.569 49.3174 184.377 49.8507C184.174 50.3947 183.907 50.8427 183.577 51.1947C183.225 51.5681 182.798 51.8507 182.297 52.0427C181.806 52.2347 181.251 52.3308 180.633 52.3308C180.014 52.3308 179.454 52.2347 178.953 52.0427C178.451 51.8507 178.025 51.5681 177.673 51.1947C177.299 50.8107 177.022 50.3627 176.84 49.8507C176.649 49.3174 176.553 48.7307 176.553 48.0907C176.553 47.4507 176.649 46.8694 176.84 46.3467C177.022 45.8561 177.299 45.4134 177.673 45.0187C178.014 44.6667 178.441 44.3894 178.953 44.1867C179.475 43.9841 180.035 43.8827 180.633 43.8827ZM180.633 50.8107C181.315 50.8107 181.817 50.5814 182.137 50.1227C182.467 49.6427 182.633 48.9707 182.633 48.1068C182.633 47.2427 182.467 46.5707 182.137 46.0907C181.817 45.6214 181.315 45.3867 180.633 45.3867C179.95 45.3867 179.438 45.6214 179.097 46.0907C178.755 46.5601 178.585 47.2374 178.585 48.1227C178.585 48.9867 178.755 49.6534 179.097 50.1227C179.427 50.5814 179.939 50.8107 180.633 50.8107Z" fill="#0094FF"/>
</svg>
